SourceSans_Semibold-Italic.ufo
<glyph name="numbersign" format="1">
	<unicode hex="0023"/>
	<advance width="493"/>
	<outline>
		<contour>
			<point x="34" y="0" type="line"/>
			<point x="106" y="0" type="line"/>
			<point x="168" y="194" type="line"/>
			<point x="273" y="194" type="line"/>
			<point x="211" y="0" type="line"/>
			<point x="283" y="0" type="line"/>
			<point x="345" y="194" type="line"/>
			<point x="428" y="194" type="line"/>
			<point x="445" y="272" type="line"/>
			<point x="368" y="272" type="line"/>
			<point x="409" y="398" type="line"/>
			<point x="490" y="398" type="line"/>
			<point x="508" y="476" type="line"/>
			<point x="432" y="476" type="line"/>
			<point x="488" y="650" type="line"/>
			<point x="415" y="650" type="line"/>
			<point x="359" y="476" type="line"/>
			<point x="255" y="476" type="line"/>
			<point x="311" y="650" type="line"/>
			<point x="238" y="650" type="line"/>
			<point x="182" y="476" type="line"/>
			<point x="100" y="476" type="line"/>
			<point x="82" y="398" type="line"/>
			<point x="159" y="398" type="line"/>
			<point x="118" y="272" type="line"/>
			<point x="38" y="272" type="line"/>
			<point x="20" y="194" type="line"/>
			<point x="96" y="194" type="line"/>
		</contour>
		<contour>
			<point x="191" y="272" type="line"/>
			<point x="232" y="398" type="line"/>
			<point x="337" y="398" type="line"/>
			<point x="296" y="272" type="line"/>
		</contour>
	</outline>
</glyph>
<glyph name="zero" format="2">
	<unicode hex="0030"/>
	<advance width="494"/>
	<outline>
		<contour>
			<point x="209" y="-12" type="curve" smooth="yes"/>
			<point x="348" y="-12"/>
			<point x="479" y="164"/>
			<point x="479" y="424" type="curve" smooth="yes"/>
			<point x="479" y="562"/>
			<point x="413" y="648"/>
			<point x="312" y="648" type="curve" smooth="yes"/>
			<point x="173" y="648"/>
			<point x="40" y="471"/>
			<point x="40" y="210" type="curve" smooth="yes"/>
			<point x="40" y="73"/>
			<point x="106" y="-12"/>
		</contour>
		<contour>
			<point x="215" y="72" type="curve" smooth="yes"/>
			<point x="165" y="72"/>
			<point x="140" y="119"/>
			<point x="140" y="202" type="curve" smooth="yes"/>
			<point x="140" y="386"/>
			<point x="218" y="565"/>
			<point x="305" y="565" type="curve" smooth="yes"/>
			<point x="355" y="565"/>
			<point x="380" y="516"/>
			<point x="380" y="432" type="curve" smooth="yes"/>
			<point x="380" y="248"/>
			<point x="302" y="72"/>
		</contour>
	</outline>
</glyph>
<glyph name="at" format="2">
	<unicode hex="0040"/>
	<advance width="840"/>
	<outline>
		<contour>
			<point x="368" y="-164" type="curve" smooth="yes"/>
			<point x="428" y="-164"/>
			<point x="480" y="-148"/>
			<point x="538" y="-118" type="curve"/>
			<point x="506" y="-56" type="line"/>
			<point x="468" y="-78"/>
			<point x="422" y="-88"/>
			<point x="376" y="-88" type="curve" smooth="yes"/>
			<point x="246" y="-88"/>
			<point x="128" y="2"/>
			<point x="128" y="176" type="curve" smooth="yes"/>
			<point x="128" y="406"/>
			<point x="312" y="580"/>
			<point x="482" y="580" type="curve" smooth="yes"/>
			<point x="658" y="580"/>
			<point x="726" y="470"/>
			<point x="726" y="342" type="curve" smooth="yes"/>
			<point x="726" y="196"/>
			<point x="658" y="118"/>
			<point x="600" y="118" type="curve" smooth="yes"/>
			<point x="557" y="118"/>
			<point x="548" y="152"/>
			<point x="560" y="206" type="curve"/>
			<point x="612" y="432" type="line"/>
			<point x="532" y="432" type="line"/>
			<point x="522" y="394" type="line"/>
			<point x="518" y="394" type="line"/>
			<point x="510" y="425"/>
			<point x="482" y="442"/>
			<point x="448" y="442" type="curve" smooth="yes"/>
			<point x="336" y="442"/>
			<point x="242" y="318"/>
			<point x="242" y="192" type="curve" smooth="yes"/>
			<point x="242" y="98"/>
			<point x="300" y="48"/>
			<point x="368" y="48" type="curve" smooth="yes"/>
			<point x="410" y="48"/>
			<point x="455" y="72"/>
			<point x="480" y="114" type="curve"/>
			<point x="484" y="114" type="line"/>
			<point x="494" y="64"/>
			<point x="534" y="40"/>
			<point x="580" y="40" type="curve" smooth="yes"/>
			<point x="702" y="40"/>
			<point x="812" y="147"/>
			<point x="812" y="354" type="curve" smooth="yes"/>
			<point x="812" y="526"/>
			<point x="696" y="656"/>
			<point x="490" y="656" type="curve" smooth="yes"/>
			<point x="256" y="656"/>
			<point x="38" y="444"/>
			<point x="38" y="163" type="curve" smooth="yes"/>
			<point x="38" y="-50"/>
			<point x="188" y="-164"/>
		</contour>
		<contour>
			<point x="390" y="128" type="curve" smooth="yes"/>
			<point x="358" y="128"/>
			<point x="338" y="153"/>
			<point x="338" y="200" type="curve" smooth="yes"/>
			<point x="338" y="267"/>
			<point x="386" y="360"/>
			<point x="450" y="360" type="curve" smooth="yes"/>
			<point x="470" y="360"/>
			<point x="486" y="350"/>
			<point x="496" y="328" type="curve"/>
			<point x="462" y="179" type="line"/>
			<point x="437" y="144"/>
			<point x="414" y="128"/>
		</contour>
	</outline>
</glyph>
<glyph name="D" format="1">
	<unicode hex="0044"/>
	<advance width="604"/>
	<outline>
		<contour>
			<point x="32" y="0" type="line"/>
			<point x="222" y="0" type="line" smooth="yes"/>
			<point x="437" y="0"/>
			<point x="578" y="150"/>
			<point x="578" y="398" type="curve" smooth="yes"/>
			<point x="578" y="564"/>
			<point x="477" y="654"/>
			<point x="295" y="654" type="curve" smooth="yes"/>
			<point x="162" y="654" type="line"/>
		</contour>
		<contour>
			<point x="157" y="87" type="line"/>
			<point x="252" y="567" type="line"/>
			<point x="292" y="567" type="line" smooth="yes"/>
			<point x="403" y="567"/>
			<point x="468" y="507"/>
			<point x="468" y="391" type="curve" smooth="yes"/>
			<point x="468" y="198"/>
			<point x="367" y="87"/>
			<point x="220" y="87" type="curve" smooth="yes"/>
		</contour>
		<contour>
			<point name="aboveUC" x="374" y="676" type="move"/>
		</contour>
		<contour>
			<point name="belowLC" x="258" y="-22" type="move"/>
		</contour>
	</outline>
</glyph>
<glyph name="H" format="1">
	<unicode hex="0048"/>
	<advance width="638"/>
	<outline>
		<contour>
			<point x="32" y="0" type="line"/>
			<point x="140" y="0" type="line"/>
			<point x="198" y="295" type="line"/>
			<point x="457" y="295" type="line"/>
			<point x="397" y="0" type="line"/>
			<point x="505" y="0" type="line"/>
			<point x="636" y="654" type="line"/>
			<point x="528" y="654" type="line"/>
			<point x="475" y="389" type="line"/>
			<point x="216" y="389" type="line"/>
			<point x="270" y="654" type="line"/>
			<point x="162" y="654" type="line"/>
		</contour>
		<contour>
			<point name="aboveUC" x="394" y="676" type="move"/>
		</contour>
		<contour>
			<point name="belowLC" x="278" y="-22" type="move"/>
		</contour>
	</outline>
</glyph>
<glyph name="J" format="2">
	<unicode hex="004A"/>
	<advance width="474"/>
	<outline>
		<contour>
			<point x="168" y="-12" type="curve" smooth="yes"/>
			<point x="294" y="-12"/>
			<point x="363" y="78"/>
			<point x="385" y="194" type="curve" smooth="yes"/>
			<point x="477" y="654" type="line"/>
			<point x="369" y="654" type="line"/>
			<point x="281" y="212" type="line" smooth="yes"/>
			<point x="264" y="127"/>
			<point x="227" y="81"/>
			<point x="167" y="81" type="curve" smooth="yes"/>
			<point x="116" y="81"/>
			<point x="82" y="106"/>
			<point x="61" y="147" type="curve"/>
			<point x="-3" y="94" type="line"/>
			<point x="28" y="24"/>
			<point x="89" y="-12"/>
		</contour>
	</outline>
	<anchor name="aboveUC" x="428" y="676"/>
	<anchor name="belowLC" x="166" y="-22"/>
</glyph>
<glyph name="M" format="1">
	<unicode hex="004D"/>
	<advance width="723"/>
	<outline>
		<contour>
			<point x="32" y="0" type="line"/>
			<point x="132" y="0" type="line"/>
			<point x="194" y="314" type="line" smooth="yes"/>
			<point x="207" y="378"/>
			<point x="214" y="466"/>
			<point x="220" y="530" type="curve"/>
			<point x="224" y="530" type="line"/>
			<point x="242" y="368" type="line"/>
			<point x="290" y="64" type="line"/>
			<point x="366" y="64" type="line"/>
			<point x="528" y="368" type="line"/>
			<point x="606" y="530" type="line"/>
			<point x="610" y="530" type="line"/>
			<point x="590" y="466"/>
			<point x="566" y="378"/>
			<point x="553" y="314" type="curve" smooth="yes"/>
			<point x="488" y="0" type="line"/>
			<point x="590" y="0" type="line"/>
			<point x="720" y="654" type="line"/>
			<point x="590" y="654" type="line"/>
			<point x="414" y="326" type="line" smooth="yes"/>
			<point x="391" y="284"/>
			<point x="374" y="244"/>
			<point x="355" y="200" type="curve"/>
			<point x="351" y="200" type="line"/>
			<point x="346" y="244"/>
			<point x="342" y="284"/>
			<point x="336" y="326" type="curve" smooth="yes"/>
			<point x="290" y="654" type="line"/>
			<point x="162" y="654" type="line"/>
		</contour>
		<contour>
			<point name="aboveUC" x="438" y="676" type="move"/>
		</contour>
		<contour>
			<point name="belowLC" x="312" y="-27" type="move"/>
		</contour>
	</outline>
</glyph>
<glyph name="N" format="1">
	<unicode hex="004E"/>
	<advance width="631"/>
	<outline>
		<contour>
			<point x="32" y="0" type="line"/>
			<point x="135" y="0" type="line"/>
			<point x="194" y="300" type="line" smooth="yes"/>
			<point x="208" y="371"/>
			<point x="217" y="452"/>
			<point x="224" y="522" type="curve"/>
			<point x="228" y="522" type="line"/>
			<point x="238" y="466"/>
			<point x="256" y="402"/>
			<point x="264" y="378" type="curve" smooth="yes"/>
			<point x="388" y="0" type="line"/>
			<point x="499" y="0" type="line"/>
			<point x="630" y="654" type="line"/>
			<point x="526" y="654" type="line"/>
			<point x="467" y="356" type="line" smooth="yes"/>
			<point x="453" y="284"/>
			<point x="445" y="204"/>
			<point x="438" y="134" type="curve"/>
			<point x="434" y="134" type="line"/>
			<point x="426" y="180"/>
			<point x="408" y="250"/>
			<point x="400" y="274" type="curve" smooth="yes"/>
			<point x="274" y="654" type="line"/>
			<point x="162" y="654" type="line"/>
		</contour>
		<contour>
			<point name="aboveUC" x="406" y="676" type="move"/>
		</contour>
		<contour>
			<point name="belowLC" x="272" y="-27" type="move"/>
		</contour>
	</outline>
</glyph>
<glyph name="O" format="1">
	<unicode hex="004F"/>
	<advance width="647"/>
	<outline>
		<contour>
			<point x="294" y="-12" type="curve" smooth="yes"/>
			<point x="477" y="-12"/>
			<point x="620" y="175"/>
			<point x="620" y="391" type="curve" smooth="yes"/>
			<point x="620" y="560"/>
			<point x="532" y="666"/>
			<point x="384" y="666" type="curve" smooth="yes"/>
			<point x="202" y="666"/>
			<point x="58" y="479"/>
			<point x="58" y="263" type="curve" smooth="yes"/>
			<point x="58" y="94"/>
			<point x="147" y="-12"/>
		</contour>
		<contour>
			<point x="300" y="81" type="curve" smooth="yes"/>
			<point x="212" y="81"/>
			<point x="169" y="155"/>
			<point x="169" y="271" type="curve" smooth="yes"/>
			<point x="169" y="423"/>
			<point x="262" y="573"/>
			<point x="378" y="573" type="curve" smooth="yes"/>
			<point x="466" y="573"/>
			<point x="510" y="499"/>
			<point x="510" y="383" type="curve" smooth="yes"/>
			<point x="510" y="231"/>
			<point x="416" y="81"/>
		</contour>
		<contour>
			<point name="aboveUC" x="402" y="676" type="move"/>
		</contour>
		<contour>
			<point name="belowLC" x="278" y="-22" type="move"/>
		</contour>
		<contour>
			<point name="hornLC" x="520" y="646" type="move"/>
		</contour>
		<contour>
			<point name="ogonekUC" x="280" y="0" type="move"/>
		</contour>
	</outline>
</glyph>
<glyph name="T" format="1">
	<unicode hex="0054"/>
	<advance width="521"/>
	<outline>
		<contour>
			<point x="157" y="0" type="line"/>
			<point x="265" y="0" type="line"/>
			<point x="377" y="562" type="line"/>
			<point x="558" y="562" type="line"/>
			<point x="576" y="654" type="line"/>
			<point x="106" y="654" type="line"/>
			<point x="88" y="562" type="line"/>
			<point x="269" y="562" type="line"/>
		</contour>
	</outline>
</glyph>
<glyph name="W" format="1">
	<unicode hex="0057"/>
	<advance width="775"/>
	<outline>
		<contour>
			<point x="88" y="0" type="line"/>
			<point x="228" y="0" type="line"/>
			<point x="380" y="356" type="line" smooth="yes"/>
			<point x="401" y="406"/>
			<point x="416" y="459"/>
			<point x="434" y="509" type="curve"/>
			<point x="438" y="509" type="line"/>
			<point x="435" y="458"/>
			<point x="431" y="401"/>
			<point x="432" y="356" type="curve" smooth="yes"/>
			<point x="436" y="0" type="line"/>
			<point x="572" y="0" type="line"/>
			<point x="832" y="654" type="line"/>
			<point x="728" y="654" type="line"/>
			<point x="602" y="318" type="line" smooth="yes"/>
			<point x="577" y="249"/>
			<point x="549" y="177"/>
			<point x="524" y="106" type="curve"/>
			<point x="520" y="106" type="line"/>
			<point x="522" y="177"/>
			<point x="524" y="249"/>
			<point x="524" y="318" type="curve" smooth="yes"/>
			<point x="522" y="654" type="line"/>
			<point x="416" y="654" type="line"/>
			<point x="274" y="318" type="line" smooth="yes"/>
			<point x="245" y="250"/>
			<point x="215" y="177"/>
			<point x="186" y="106" type="curve"/>
			<point x="182" y="106" type="line"/>
			<point x="188" y="177"/>
			<point x="192" y="248"/>
			<point x="197" y="318" type="curve" smooth="yes"/>
			<point x="212" y="654" type="line"/>
			<point x="102" y="654" type="line"/>
		</contour>
		<contour>
			<point name="aboveUC" x="474" y="676" type="move"/>
		</contour>
		<contour>
			<point name="belowLC" x="328" y="-27" type="move"/>
		</contour>
	</outline>
</glyph>
<glyph name="Y" format="2">
	<unicode hex="0059"/>
	<advance width="488"/>
	<outline>
		<contour>
			<point x="138" y="0" type="line"/>
			<point x="248" y="0" type="line"/>
			<point x="298" y="245" type="line"/>
			<point x="573" y="654" type="line"/>
			<point x="454" y="654" type="line"/>
			<point x="348" y="484" type="line" smooth="yes"/>
			<point x="318" y="435"/>
			<point x="292" y="389"/>
			<point x="263" y="339" type="curve"/>
			<point x="260" y="339" type="line"/>
			<point x="250" y="390"/>
			<point x="241" y="434"/>
			<point x="232" y="483" type="curve" smooth="yes"/>
			<point x="196" y="654" type="line"/>
			<point x="82" y="654" type="line"/>
			<point x="187" y="245" type="line"/>
		</contour>
	</outline>
	<anchor name="aboveUC" x="327" y="676"/>
	<anchor name="belowLC" x="193" y="-27"/>
</glyph>
<glyph name="a" format="2">
	<unicode hex="0061"/>
	<advance width="544"/>
	<outline>
		<contour>
			<point x="175" y="-12" type="curve" smooth="yes"/>
			<point x="231" y="-12"/>
			<point x="291" y="20"/>
			<point x="337" y="68" type="curve"/>
			<point x="340" y="68" type="line"/>
			<point x="335" y="0" type="line"/>
			<point x="423" y="0" type="line"/>
			<point x="521" y="491" type="line"/>
			<point x="435" y="491" type="line"/>
			<point x="414" y="434" type="line"/>
			<point x="412" y="434" type="line"/>
			<point x="390" y="476"/>
			<point x="347" y="503"/>
			<point x="299" y="503" type="curve" smooth="yes"/>
			<point x="163" y="503"/>
			<point x="35" y="355"/>
			<point x="35" y="167" type="curve" smooth="yes"/>
			<point x="35" y="52"/>
			<point x="89" y="-12"/>
		</contour>
		<contour>
			<point x="219" y="76" type="curve" smooth="yes"/>
			<point x="174" y="76"/>
			<point x="146" y="110"/>
			<point x="146" y="182" type="curve" smooth="yes"/>
			<point x="146" y="308"/>
			<point x="222" y="415"/>
			<point x="305" y="415" type="curve" smooth="yes"/>
			<point x="335" y="415"/>
			<point x="366" y="397"/>
			<point x="388" y="355" type="curve"/>
			<point x="348" y="159" type="line"/>
			<point x="308" y="100"/>
			<point x="261" y="76"/>
		</contour>
	</outline>
	<anchor name="aboveLC" x="316" y="514"/>
	<anchor name="belowLC" x="228" y="-22"/>
	<anchor name="ogonekLC" x="350" y="0"/>
</glyph>
<glyph name="e" format="1">
	<unicode hex="0065"/>
	<advance width="488"/>
	<outline>
		<contour>
			<point x="238" y="-12" type="curve" smooth="yes"/>
			<point x="302" y="-12"/>
			<point x="358" y="10"/>
			<point x="398" y="42" type="curve"/>
			<point x="360" y="108" type="line"/>
			<point x="334" y="88"/>
			<point x="296" y="74"/>
			<point x="260" y="74" type="curve" smooth="yes"/>
			<point x="188" y="74"/>
			<point x="130" y="116"/>
			<point x="140" y="214" type="curve"/>
			<point x="437" y="214" type="line"/>
			<point x="445" y="230"/>
			<point x="458" y="278"/>
			<point x="458" y="322" type="curve" smooth="yes"/>
			<point x="458" y="424"/>
			<point x="416" y="504"/>
			<point x="301" y="504" type="curve" smooth="yes"/>
			<point x="172" y="504"/>
			<point x="33" y="380"/>
			<point x="33" y="196" type="curve" smooth="yes"/>
			<point x="33" y="65"/>
			<point x="114" y="-12"/>
		</contour>
		<contour>
			<point x="150" y="294" type="line"/>
			<point x="172" y="372"/>
			<point x="230" y="418"/>
			<point x="288" y="418" type="curve" smooth="yes"/>
			<point x="347" y="418"/>
			<point x="367" y="376"/>
			<point x="367" y="329" type="curve" smooth="yes"/>
			<point x="367" y="316"/>
			<point x="365" y="305"/>
			<point x="362" y="294" type="curve"/>
		</contour>
		<contour>
			<point name="aboveLC" x="312" y="514" type="move"/>
		</contour>
		<contour>
			<point name="baseLC" x="229" y="0" type="move"/>
		</contour>
		<contour>
			<point name="belowLC" x="216" y="-22" type="move"/>
		</contour>
		<contour>
			<point name="ogonekLC" x="286" y="0" type="move"/>
		</contour>
	</outline>
</glyph>
<glyph name="l" format="2">
	<unicode hex="006C"/>
	<advance width="262"/>
	<outline>
		<contour>
			<point x="129" y="-12" type="curve" smooth="yes"/>
			<point x="152" y="-12"/>
			<point x="171" y="-6"/>
			<point x="188" y="0" type="curve"/>
			<point x="182" y="77" type="line"/>
			<point x="174" y="75"/>
			<point x="171" y="75"/>
			<point x="167" y="75" type="curve" smooth="yes"/>
			<point x="157" y="75"/>
			<point x="151" y="81"/>
			<point x="151" y="93" type="curve" smooth="yes"/>
			<point x="151" y="99"/>
			<point x="151" y="104"/>
			<point x="153" y="115" type="curve" smooth="yes"/>
			<point x="271" y="706" type="line"/>
			<point x="164" y="706" type="line"/>
			<point x="47" y="120" type="line" smooth="yes"/>
			<point x="42" y="99"/>
			<point x="40" y="83"/>
			<point x="40" y="68" type="curve" smooth="yes"/>
			<point x="40" y="18"/>
			<point x="66" y="-12"/>
		</contour>
	</outline>
	<anchor name="aboveUC" x="216" y="724"/>
	<anchor name="belowLC" x="100" y="-22"/>
</glyph>
<glyph name="t" format="2">
	<unicode hex="0074"/>
	<advance width="346"/>
	<outline>
		<contour>
			<point x="193" y="-12" type="curve" smooth="yes"/>
			<point x="237" y="-12"/>
			<point x="274" y="0"/>
			<point x="298" y="12" type="curve"/>
			<point x="277" y="84" type="line"/>
			<point x="263" y="78"/>
			<point x="246" y="73"/>
			<point x="229" y="73" type="curve" smooth="yes"/>
			<point x="192" y="73"/>
			<point x="175" y="91"/>
			<point x="175" y="127" type="curve" smooth="yes"/>
			<point x="175" y="139"/>
			<point x="176" y="150"/>
			<point x="178" y="162" type="curve" smooth="yes"/>
			<point x="228" y="406" type="line"/>
			<point x="348" y="406" type="line"/>
			<point x="365" y="491" type="line"/>
			<point x="247" y="491" type="line"/>
			<point x="277" y="644" type="line"/>
			<point x="187" y="644" type="line"/>
			<point x="144" y="491" type="line"/>
			<point x="69" y="486" type="line"/>
			<point x="53" y="406" type="line"/>
			<point x="122" y="406" type="line"/>
			<point x="72" y="166" type="line" smooth="yes"/>
			<point x="68" y="146"/>
			<point x="66" y="128"/>
			<point x="66" y="109" type="curve" smooth="yes"/>
			<point x="66" y="40"/>
			<point x="102" y="-12"/>
		</contour>
	</outline>
	<anchor name="aboveLC" x="236" y="652"/>
	<anchor name="baseLC" x="178" y="0"/>
	<anchor name="belowLC" x="168" y="-22"/>
</glyph>
<glyph name="u" format="2">
	<unicode hex="0075"/>
	<advance width="534"/>
	<outline>
		<contour>
			<point x="161" y="-12" type="curve" smooth="yes"/>
			<point x="220" y="-12"/>
			<point x="278" y="26"/>
			<point x="325" y="70" type="curve"/>
			<point x="329" y="70" type="line"/>
			<point x="325" y="0" type="line"/>
			<point x="414" y="0" type="line"/>
			<point x="512" y="492" type="line"/>
			<point x="402" y="492" type="line"/>
			<point x="336" y="157" type="line"/>
			<point x="287" y="106"/>
			<point x="250" y="82"/>
			<point x="217" y="82" type="curve" smooth="yes"/>
			<point x="176" y="82"/>
			<point x="157" y="103"/>
			<point x="157" y="144" type="curve" smooth="yes"/>
			<point x="157" y="159"/>
			<point x="160" y="173"/>
			<point x="165" y="196" type="curve" smooth="yes"/>
			<point x="224" y="492" type="line"/>
			<point x="114" y="492" type="line"/>
			<point x="52" y="182" type="line" smooth="yes"/>
			<point x="47" y="156"/>
			<point x="44" y="135"/>
			<point x="44" y="113" type="curve" smooth="yes"/>
			<point x="44" y="34"/>
			<point x="79" y="-12"/>
		</contour>
	</outline>
	<anchor name="aboveLC" x="316" y="514"/>
	<anchor name="baseLC" x="202" y="0"/>
	<anchor name="belowLC" x="232" y="-27"/>
	<anchor name="hornLC" x="465" y="502"/>
	<anchor name="ogonekLC" x="342" y="0"/>
</glyph>
<glyph name="w" format="2">
	<unicode hex="0077"/>
	<advance width="730"/>
	<outline>
		<contour>
			<point x="100" y="0" type="line"/>
			<point x="236" y="0" type="line"/>
			<point x="332" y="232" type="line" smooth="yes"/>
			<point x="352" y="282"/>
			<point x="366" y="328"/>
			<point x="385" y="392" type="curve"/>
			<point x="389" y="392" type="line"/>
			<point x="386" y="328"/>
			<point x="384" y="282"/>
			<point x="384" y="232" type="curve"/>
			<point x="388" y="0" type="line"/>
			<point x="525" y="0" type="line"/>
			<point x="741" y="492" type="line"/>
			<point x="636" y="492" type="line"/>
			<point x="528" y="228" type="line" smooth="yes"/>
			<point x="511" y="186"/>
			<point x="494" y="134"/>
			<point x="476" y="86" type="curve"/>
			<point x="472" y="86" type="line"/>
			<point x="472" y="134"/>
			<point x="472" y="186"/>
			<point x="472" y="228" type="curve"/>
			<point x="462" y="492" type="line"/>
			<point x="350" y="492" type="line"/>
			<point x="240" y="228" type="line" smooth="yes"/>
			<point x="222" y="186"/>
			<point x="204" y="134"/>
			<point x="188" y="86" type="curve"/>
			<point x="184" y="86" type="line"/>
			<point x="184" y="134"/>
			<point x="186" y="186"/>
			<point x="185" y="228" type="curve" smooth="yes"/>
			<point x="178" y="492" type="line"/>
			<point x="71" y="492" type="line"/>
		</contour>
	</outline>
	<anchor name="aboveLC" x="413" y="514"/>
	<anchor name="belowLC" x="311" y="-22"/>
</glyph>
<glyph name="yen" format="2">
	<unicode hex="00A5"/>
	<advance width="496"/>
	<outline>
		<contour>
			<point x="144" y="0" type="line"/>
			<point x="252" y="0" type="line"/>
			<point x="280" y="144" type="line"/>
			<point x="430" y="144" type="line"/>
			<point x="444" y="208" type="line"/>
			<point x="294" y="208" type="line"/>
			<point x="306" y="272" type="line"/>
			<point x="456" y="272" type="line"/>
			<point x="470" y="336" type="line"/>
			<point x="348" y="336" type="line"/>
			<point x="552" y="637" type="line"/>
			<point x="440" y="637" type="line"/>
			<point x="348" y="480" type="line"/>
			<point x="321" y="436"/>
			<point x="296" y="390"/>
			<point x="268" y="342" type="curve"/>
			<point x="265" y="342" type="line"/>
			<point x="256" y="390"/>
			<point x="249" y="435"/>
			<point x="240" y="480" type="curve" smooth="yes"/>
			<point x="210" y="637" type="line"/>
			<point x="98" y="637" type="line"/>
			<point x="180" y="336" type="line"/>
			<point x="60" y="336" type="line"/>
			<point x="46" y="272" type="line"/>
			<point x="198" y="272" type="line"/>
			<point x="186" y="208" type="line"/>
			<point x="34" y="208" type="line"/>
			<point x="20" y="144" type="line"/>
			<point x="172" y="144" type="line"/>
		</contour>
	</outline>
</glyph>
<glyph name="Eth" format="1">
	<unicode hex="00D0"/>
	<advance width="622"/>
	<outline>
		<contour>
			<point x="38" y="300" type="line"/>
			<point x="352" y="300" type="line"/>
			<point x="372" y="382" type="line"/>
			<point x="128" y="382" type="line"/>
			<point x="56" y="378" type="line"/>
		</contour>
		<component base="D" xOffset="18"/>
	</outline>
</glyph>
<glyph name="Oslash" format="1">
	<unicode hex="00D8"/>
	<advance width="647"/>
	<outline>
		<contour>
			<point x="48" y="-40" type="line"/>
			<point x="696" y="642" type="line"/>
			<point x="640" y="698" type="line"/>
			<point x="-8" y="16" type="line"/>
		</contour>
		<component base="O"/>
		<contour>
			<point name="aboveUC" x="402" y="676" type="move"/>
		</contour>
	</outline>
</glyph>
<glyph name="ae" format="1">
	<unicode hex="00E6"/>
	<advance width="758"/>
	<outline>
		<contour>
			<point x="156" y="-12" type="curve" smooth="yes"/>
			<point x="228" y="-12"/>
			<point x="289" y="21"/>
			<point x="350" y="76" type="curve"/>
			<point x="376" y="27"/>
			<point x="436" y="-12"/>
			<point x="506" y="-12" type="curve" smooth="yes"/>
			<point x="574" y="-12"/>
			<point x="628" y="12"/>
			<point x="666" y="42" type="curve"/>
			<point x="628" y="108" type="line"/>
			<point x="600" y="88"/>
			<point x="562" y="72"/>
			<point x="528" y="72" type="curve" smooth="yes"/>
			<point x="454" y="72"/>
			<point x="406" y="122"/>
			<point x="418" y="214" type="curve"/>
			<point x="706" y="214" type="line"/>
			<point x="713" y="232"/>
			<point x="726" y="278"/>
			<point x="726" y="322" type="curve" smooth="yes"/>
			<point x="726" y="424"/>
			<point x="684" y="503"/>
			<point x="570" y="503" type="curve" smooth="yes"/>
			<point x="514" y="503"/>
			<point x="457" y="473"/>
			<point x="413" y="422" type="curve"/>
			<point x="396" y="478"/>
			<point x="346" y="503"/>
			<point x="278" y="503" type="curve" smooth="yes"/>
			<point x="220" y="503"/>
			<point x="158" y="480"/>
			<point x="108" y="453" type="curve"/>
			<point x="140" y="380" type="line"/>
			<point x="185" y="403"/>
			<point x="228" y="418"/>
			<point x="266" y="418" type="curve" smooth="yes"/>
			<point x="317" y="418"/>
			<point x="341" y="392"/>
			<point x="341" y="338" type="curve" smooth="yes"/>
			<point x="341" y="329"/>
			<point x="340" y="320"/>
			<point x="338" y="308" type="curve"/>
			<point x="160" y="302"/>
			<point x="27" y="252"/>
			<point x="27" y="109" type="curve" smooth="yes"/>
			<point x="27" y="33"/>
			<point x="84" y="-12"/>
		</contour>
		<contour>
			<point x="198" y="72" type="curve" smooth="yes"/>
			<point x="159" y="72"/>
			<point x="132" y="93"/>
			<point x="132" y="131" type="curve" smooth="yes"/>
			<point x="132" y="192"/>
			<point x="200" y="230"/>
			<point x="324" y="234" type="curve"/>
			<point x="319" y="200"/>
			<point x="319" y="175"/>
			<point x="324" y="144" type="curve"/>
			<point x="279" y="95"/>
			<point x="233" y="72"/>
		</contour>
		<contour>
			<point x="430" y="294" type="line"/>
			<point x="452" y="372"/>
			<point x="507" y="418"/>
			<point x="557" y="418" type="curve" smooth="yes"/>
			<point x="618" y="418"/>
			<point x="638" y="376"/>
			<point x="638" y="328" type="curve" smooth="yes"/>
			<point x="638" y="316"/>
			<point x="636" y="304"/>
			<point x="634" y="294" type="curve"/>
		</contour>
		<contour>
			<point name="aboveLC" x="440" y="522" type="move"/>
		</contour>
		<contour>
			<point name="belowLC" x="340" y="-22" type="move"/>
		</contour>
	</outline>
</glyph>
<glyph name="eth" format="2">
	<unicode hex="00F0"/>
	<advance width="542"/>
	<outline>
		<contour>
			<point x="192" y="482" type="line"/>
			<point x="556" y="630" type="line"/>
			<point x="526" y="704" type="line"/>
			<point x="162" y="556" type="line"/>
		</contour>
		<contour>
			<point x="220" y="-12" type="curve" smooth="yes"/>
			<point x="377" y="-12"/>
			<point x="490" y="140"/>
			<point x="490" y="362" type="curve" smooth="yes"/>
			<point x="490" y="540"/>
			<point x="390" y="657"/>
			<point x="254" y="735" type="curve"/>
			<point x="201" y="672" type="line"/>
			<point x="324" y="595"/>
			<point x="384" y="503"/>
			<point x="384" y="350" type="curve" smooth="yes"/>
			<point x="384" y="187"/>
			<point x="319" y="75"/>
			<point x="234" y="75" type="curve" smooth="yes"/>
			<point x="175" y="75"/>
			<point x="144" y="126"/>
			<point x="144" y="186" type="curve" smooth="yes"/>
			<point x="144" y="275"/>
			<point x="195" y="368"/>
			<point x="281" y="368" type="curve" smooth="yes"/>
			<point x="329" y="368"/>
			<point x="363" y="333"/>
			<point x="384" y="296" type="curve"/>
			<point x="401" y="357" type="line"/>
			<point x="379" y="417"/>
			<point x="327" y="451"/>
			<point x="268" y="451" type="curve" smooth="yes"/>
			<point x="124" y="451"/>
			<point x="38" y="312"/>
			<point x="38" y="177" type="curve" smooth="yes"/>
			<point x="38" y="64"/>
			<point x="111" y="-12"/>
		</contour>
	</outline>
	<anchor name="aboveUC" x="370" y="724"/>
	<anchor name="belowLC" x="216" y="-22"/>
</glyph>
<glyph name="oslash" format="2">
	<unicode hex="00F8"/>
	<advance width="524"/>
	<outline>
		<contour>
			<point x="218" y="-12" type="curve" smooth="yes"/>
			<point x="352" y="-12"/>
			<point x="488" y="114"/>
			<point x="488" y="302" type="curve" smooth="yes"/>
			<point x="488" y="430"/>
			<point x="410" y="504"/>
			<point x="304" y="504" type="curve" smooth="yes"/>
			<point x="170" y="504"/>
			<point x="34" y="376"/>
			<point x="34" y="188" type="curve" smooth="yes"/>
			<point x="34" y="61"/>
			<point x="112" y="-12"/>
		</contour>
		<contour>
			<point x="226" y="74" type="curve" smooth="yes"/>
			<point x="166" y="74"/>
			<point x="136" y="120"/>
			<point x="136" y="192" type="curve" smooth="yes"/>
			<point x="136" y="302"/>
			<point x="203" y="418"/>
			<point x="296" y="418" type="curve" smooth="yes"/>
			<point x="354" y="418"/>
			<point x="386" y="372"/>
			<point x="386" y="298" type="curve" smooth="yes"/>
			<point x="386" y="188"/>
			<point x="321" y="74"/>
		</contour>
		<contour>
			<point x="44" y="-32" type="line"/>
			<point x="534" y="472" type="line"/>
			<point x="482" y="522" type="line"/>
			<point x="-8" y="18" type="line"/>
		</contour>
	</outline>
	<anchor name="aboveLC" x="320" y="514"/>
	<anchor name="belowLC" x="196" y="-22"/>
</glyph>
<glyph name="dcroat" format="1">
	<unicode hex="0111"/>
	<advance width="542"/>
	<outline>
		<contour>
			<point x="175" y="-12" type="curve" smooth="yes"/>
			<point x="231" y="-12"/>
			<point x="291" y="20"/>
			<point x="337" y="68" type="curve"/>
			<point x="340" y="68" type="line"/>
			<point x="335" y="0" type="line"/>
			<point x="423" y="0" type="line"/>
			<point x="565" y="706" type="line"/>
			<point x="458" y="706" type="line"/>
			<point x="420" y="512" type="line"/>
			<point x="406" y="418" type="line"/>
			<point x="403" y="418" type="line"/>
			<point x="384" y="457"/>
			<point x="346" y="483"/>
			<point x="298" y="483" type="curve" smooth="yes"/>
			<point x="162" y="483"/>
			<point x="35" y="334"/>
			<point x="35" y="167" type="curve" smooth="yes"/>
			<point x="35" y="52"/>
			<point x="89" y="-12"/>
		</contour>
		<contour>
			<point x="219" y="76" type="curve" smooth="yes"/>
			<point x="174" y="76"/>
			<point x="146" y="110"/>
			<point x="146" y="182" type="curve" smooth="yes"/>
			<point x="146" y="288"/>
			<point x="222" y="395"/>
			<point x="304" y="395" type="curve" smooth="yes"/>
			<point x="334" y="395"/>
			<point x="364" y="377"/>
			<point x="384" y="335" type="curve"/>
			<point x="348" y="159" type="line"/>
			<point x="307" y="100"/>
			<point x="261" y="76"/>
		</contour>
		<contour>
			<point x="280" y="554" type="line"/>
			<point x="532" y="554" type="line"/>
			<point x="606" y="560" type="line"/>
			<point x="620" y="634" type="line"/>
			<point x="296" y="634" type="line"/>
		</contour>
	</outline>
</glyph>
<glyph name="eogonek" format="1">
	<unicode hex="0119"/>
	<advance width="488"/>
	<outline>
		<contour>
			<point x="256" y="-217" type="curve" smooth="yes"/>
			<point x="297" y="-217"/>
			<point x="331" y="-203"/>
			<point x="360" y="-181" type="curve"/>
			<point x="337" y="-130" type="line"/>
			<point x="324" y="-139"/>
			<point x="314" y="-144"/>
			<point x="297" y="-144" type="curve" smooth="yes"/>
			<point x="276" y="-144"/>
			<point x="261" y="-131"/>
			<point x="261" y="-108" type="curve" smooth="yes"/>
			<point x="261" y="-64"/>
			<point x="296" y="-20"/>
			<point x="398" y="42" type="curve"/>
			<point x="360" y="108" type="line"/>
			<point x="334" y="88"/>
			<point x="294" y="74"/>
			<point x="260" y="74" type="curve" smooth="yes"/>
			<point x="188" y="74"/>
			<point x="130" y="116"/>
			<point x="140" y="214" type="curve"/>
			<point x="437" y="214" type="line"/>
			<point x="445" y="230"/>
			<point x="458" y="278"/>
			<point x="458" y="322" type="curve" smooth="yes"/>
			<point x="458" y="424"/>
			<point x="416" y="504"/>
			<point x="301" y="504" type="curve" smooth="yes"/>
			<point x="172" y="504"/>
			<point x="33" y="380"/>
			<point x="33" y="196" type="curve" smooth="yes"/>
			<point x="33" y="65"/>
			<point x="114" y="-12"/>
			<point x="238" y="-12" type="curve" smooth="yes"/>
			<point x="246" y="-12"/>
			<point x="262" y="-10"/>
			<point x="274" y="-7" type="curve"/>
			<point x="265" y="2" type="line"/>
			<point x="210" y="-38"/>
			<point x="170" y="-86"/>
			<point x="170" y="-139" type="curve" smooth="yes"/>
			<point x="170" y="-190"/>
			<point x="206" y="-217"/>
		</contour>
		<contour>
			<point x="150" y="294" type="line"/>
			<point x="172" y="372"/>
			<point x="230" y="418"/>
			<point x="288" y="418" type="curve" smooth="yes"/>
			<point x="347" y="418"/>
			<point x="367" y="376"/>
			<point x="367" y="329" type="curve" smooth="yes"/>
			<point x="367" y="316"/>
			<point x="365" y="305"/>
			<point x="362" y="294" type="curve"/>
		</contour>
		<contour>
			<point name="aboveLC" x="312" y="514" type="move"/>
		</contour>
	</outline>
</glyph>
<glyph name="Hbar" format="2">
	<unicode hex="0126"/>
	<advance width="672"/>
	<outline>
		<contour>
			<point x="72" y="478" type="line"/>
			<point x="690" y="478" type="line"/>
			<point x="706" y="560" type="line"/>
			<point x="172" y="560" type="line"/>
			<point x="88" y="556" type="line"/>
		</contour>
		<component base="H" xOffset="15"/>
	</outline>
</glyph>
<glyph name="hbar" format="1">
	<unicode hex="0127"/>
	<advance width="535"/>
	<outline>
		<contour>
			<point x="22" y="0" type="line"/>
			<point x="130" y="0" type="line"/>
			<point x="192" y="315" type="line"/>
			<point x="244" y="368"/>
			<point x="282" y="391"/>
			<point x="316" y="391" type="curve" smooth="yes"/>
			<point x="358" y="391"/>
			<point x="378" y="370"/>
			<point x="378" y="328" type="curve" smooth="yes"/>
			<point x="378" y="313"/>
			<point x="374" y="299"/>
			<point x="370" y="276" type="curve" smooth="yes"/>
			<point x="314" y="0" type="line"/>
			<point x="421" y="0" type="line"/>
			<point x="479" y="290" type="line" smooth="yes"/>
			<point x="485" y="316"/>
			<point x="487" y="336"/>
			<point x="487" y="359" type="curve" smooth="yes"/>
			<point x="487" y="438"/>
			<point x="453" y="483"/>
			<point x="371" y="483" type="curve" smooth="yes"/>
			<point x="312" y="483"/>
			<point x="259" y="450"/>
			<point x="209" y="407" type="curve"/>
			<point x="205" y="407" type="line"/>
			<point x="224" y="478" type="line"/>
			<point x="271" y="706" type="line"/>
			<point x="164" y="706" type="line"/>
		</contour>
		<contour>
			<point x="64" y="554" type="line"/>
			<point x="408" y="554" type="line"/>
			<point x="424" y="634" type="line"/>
			<point x="152" y="634" type="line"/>
			<point x="78" y="628" type="line"/>
		</contour>
	</outline>
</glyph>
<glyph name="dotlessi" format="1">
	<unicode hex="0131"/>
	<advance width="251"/>
	<outline>
		<contour>
			<point x="22" y="0" type="line"/>
			<point x="130" y="0" type="line"/>
			<point x="228" y="491" type="line"/>
			<point x="121" y="491" type="line"/>
		</contour>
	</outline>
</glyph>
<glyph name="oe" format="1">
	<unicode hex="0153"/>
	<advance width="805"/>
	<outline>
		<contour>
			<point x="211" y="-12" type="curve" smooth="yes"/>
			<point x="282" y="-12"/>
			<point x="353" y="31"/>
			<point x="400" y="104" type="curve"/>
			<point x="422" y="27"/>
			<point x="482" y="-12"/>
			<point x="558" y="-12" type="curve" smooth="yes"/>
			<point x="622" y="-12"/>
			<point x="676" y="14"/>
			<point x="714" y="42" type="curve"/>
			<point x="676" y="108" type="line"/>
			<point x="648" y="88"/>
			<point x="609" y="72"/>
			<point x="575" y="72" type="curve" smooth="yes"/>
			<point x="509" y="72"/>
			<point x="458" y="112"/>
			<point x="466" y="214" type="curve"/>
			<point x="752" y="214" type="line"/>
			<point x="760" y="232"/>
			<point x="774" y="278"/>
			<point x="774" y="322" type="curve" smooth="yes"/>
			<point x="774" y="424"/>
			<point x="731" y="503"/>
			<point x="617" y="503" type="curve" smooth="yes"/>
			<point x="555" y="503"/>
			<point x="488" y="463"/>
			<point x="444" y="393" type="curve"/>
			<point x="421" y="464"/>
			<point x="375" y="503"/>
			<point x="298" y="503" type="curve" smooth="yes"/>
			<point x="168" y="503"/>
			<point x="34" y="376"/>
			<point x="34" y="188" type="curve" smooth="yes"/>
			<point x="34" y="66"/>
			<point x="104" y="-12"/>
		</contour>
		<contour>
			<point x="229" y="75" type="curve" smooth="yes"/>
			<point x="172" y="75"/>
			<point x="142" y="118"/>
			<point x="142" y="192" type="curve" smooth="yes"/>
			<point x="142" y="317"/>
			<point x="215" y="416"/>
			<point x="287" y="416" type="curve" smooth="yes"/>
			<point x="343" y="416"/>
			<point x="373" y="374"/>
			<point x="373" y="300" type="curve" smooth="yes"/>
			<point x="373" y="174"/>
			<point x="303" y="75"/>
		</contour>
		<contour>
			<point x="478" y="294" type="line"/>
			<point x="500" y="372"/>
			<point x="550" y="418"/>
			<point x="604" y="418" type="curve" smooth="yes"/>
			<point x="664" y="418"/>
			<point x="684" y="376"/>
			<point x="684" y="328" type="curve" smooth="yes"/>
			<point x="684" y="316"/>
			<point x="682" y="304"/>
			<point x="680" y="294" type="curve"/>
		</contour>
		<contour>
			<point name="aboveLC" x="458" y="514" type="move"/>
		</contour>
		<contour>
			<point name="belowLC" x="384" y="-22" type="move"/>
		</contour>
	</outline>
</glyph>
<glyph name="Tbar" format="1">
	<unicode hex="0166"/>
	<advance width="521"/>
	<outline>
		<contour>
			<point x="92" y="286" type="line"/>
			<point x="440" y="286" type="line"/>
			<point x="460" y="368" type="line"/>
			<point x="200" y="368" type="line"/>
			<point x="110" y="362" type="line"/>
		</contour>
		<component base="T"/>
		<contour>
			<point name="aboveUC" x="342" y="676" type="move"/>
		</contour>
		<contour>
			<point name="belowLC" x="208" y="-22" type="move"/>
		</contour>
	</outline>
</glyph>
<glyph name="tbar" format="1">
	<unicode hex="0167"/>
	<advance width="346"/>
	<outline>
		<contour>
			<point x="12" y="210" type="line"/>
			<point x="310" y="210" type="line"/>
			<point x="326" y="290" type="line"/>
			<point x="100" y="290" type="line"/>
			<point x="26" y="284" type="line"/>
		</contour>
		<component base="t"/>
		<contour>
			<point name="aboveLC" x="236" y="652" type="move"/>
		</contour>
		<contour>
			<point name="belowLC" x="168" y="-22" type="move"/>
		</contour>
	</outline>
</glyph>
<glyph name="bstroke" format="2">
	<unicode hex="0180"/>
	<advance width="533"/>
	<outline>
		<contour>
			<point x="245" y="-12" type="curve" smooth="yes"/>
			<point x="378" y="-12"/>
			<point x="502" y="121"/>
			<point x="502" y="289" type="curve" smooth="yes"/>
			<point x="502" y="402"/>
			<point x="448" y="464"/>
			<point x="362" y="464" type="curve" smooth="yes"/>
			<point x="307" y="464"/>
			<point x="254" y="436"/>
			<point x="208" y="399" type="curve"/>
			<point x="206" y="399" type="line"/>
			<point x="229" y="493" type="line"/>
			<point x="271" y="706" type="line"/>
			<point x="164" y="706" type="line"/>
			<point x="22" y="0" type="line"/>
			<point x="111" y="0" type="line"/>
			<point x="132" y="57" type="line"/>
			<point x="134" y="57" type="line"/>
			<point x="156" y="15"/>
			<point x="196" y="-12"/>
		</contour>
		<contour>
			<point x="238" y="76" type="curve" smooth="yes"/>
			<point x="207" y="76"/>
			<point x="178" y="94"/>
			<point x="157" y="136" type="curve"/>
			<point x="192" y="305" type="line"/>
			<point x="230" y="352"/>
			<point x="280" y="376"/>
			<point x="318" y="376" type="curve" smooth="yes"/>
			<point x="363" y="376"/>
			<point x="391" y="343"/>
			<point x="391" y="274" type="curve" smooth="yes"/>
			<point x="391" y="169"/>
			<point x="319" y="76"/>
		</contour>
		<contour>
			<point x="60" y="542" type="line"/>
			<point x="408" y="542" type="line"/>
			<point x="424" y="622" type="line"/>
			<point x="148" y="622" type="line"/>
			<point x="74" y="616" type="line"/>
		</contour>
	</outline>
</glyph>
<glyph name="Istroke" format="2">
	<unicode hex="0197"/>
	<advance width="304"/>
	<outline>
		<contour>
			<point x="36" y="300" type="line"/>
			<point x="286" y="300" type="line"/>
			<point x="302" y="382" type="line"/>
			<point x="136" y="382" type="line"/>
			<point x="52" y="376" type="line"/>
		</contour>
		<component base="I" xOffset="15"/>
	</outline>
	<anchor name="aboveUC" x="238" y="676"/>
	<anchor name="belowLC" x="104" y="-22"/>
</glyph>
<glyph name="lbar" format="2">
	<unicode hex="019A"/>
	<advance width="312"/>
	<outline>
		<contour>
			<point x="32" y="342" type="line"/>
			<point x="315" y="342" type="line"/>
			<point x="330" y="422" type="line"/>
			<point x="138" y="422" type="line"/>
			<point x="46" y="416" type="line"/>
		</contour>
		<component base="l" xOffset="28"/>
	</outline>
	<anchor name="aboveUC" x="250" y="726"/>
	<anchor name="belowLC" x="128" y="-22"/>
</glyph>
<glyph name="lambdastroke" format="2">
	<unicode hex="019B"/>
	<advance width="474"/>
	<outline>
		<contour>
			<point x="118" y="440" type="line"/>
			<point x="480" y="588" type="line"/>
			<point x="450" y="662" type="line"/>
			<point x="88" y="514" type="line"/>
		</contour>
		<component base="lambda.latin"/>
	</outline>
	<anchor name="aboveUC" x="278" y="724"/>
	<anchor name="belowLC" x="210" y="-22"/>
</glyph>
<glyph name="clickalveolar" format="2">
	<unicode hex="01C2"/>
	<advance width="390"/>
	<outline>
		<contour>
			<point x="12" y="226" type="line"/>
			<point x="362" y="226" type="line"/>
			<point x="378" y="306" type="line"/>
			<point x="102" y="306" type="line"/>
			<point x="26" y="300" type="line"/>
		</contour>
		<contour>
			<point x="46" y="398" type="line"/>
			<point x="396" y="398" type="line"/>
			<point x="412" y="478" type="line"/>
			<point x="136" y="478" type="line"/>
			<point x="60" y="472" type="line"/>
		</contour>
		<component base="l.a" xOffset="68"/>
	</outline>
	<anchor name="aboveUC" x="286" y="724"/>
	<anchor name="belowLC" x="134" y="-22"/>
</glyph>
<glyph name="gstroke" format="2">
	<unicode hex="01E5"/>
	<advance width="561"/>
	<outline>
		<contour>
			<point x="250" y="224" type="line"/>
			<point x="548" y="224" type="line"/>
			<point x="564" y="304" type="line"/>
			<point x="374" y="304" type="line"/>
			<point x="266" y="298" type="line"/>
		</contour>
		<component base="g"/>
	</outline>
	<anchor name="aboveLC" x="310" y="514"/>
	<anchor name="belowLC" x="188" y="-198"/>
</glyph>
<glyph name="dotlessj" format="2">
	<unicode hex="0237"/>
	<advance width="254"/>
	<outline>
		<contour>
			<point x="-41" y="-205" type="curve" smooth="yes"/>
			<point x="58" y="-205"/>
			<point x="106" y="-132"/>
			<point x="125" y="-37" type="curve" smooth="yes"/>
			<point x="231" y="492" type="line"/>
			<point x="121" y="492" type="line"/>
			<point x="16" y="-33" type="line" smooth="yes"/>
			<point x="3" y="-89"/>
			<point x="-14" y="-117"/>
			<point x="-50" y="-117" type="curve" smooth="yes"/>
			<point x="-67" y="-117"/>
			<point x="-82" y="-114"/>
			<point x="-96" y="-107" type="curve"/>
			<point x="-125" y="-185" type="line"/>
			<point x="-101" y="-200"/>
			<point x="-72" y="-205"/>
		</contour>
	</outline>
	<anchor name="aboveLC" x="179" y="514"/>
	<anchor name="belowLC" x="-9" y="-207"/>
</glyph>
<glyph name="Cstroke" format="2">
	<unicode hex="023B"/>
	<advance width="559"/>
	<outline>
		<contour>
			<point x="178" y="-36" type="line"/>
			<point x="508" y="676" type="line"/>
			<point x="470" y="690" type="line"/>
			<point x="140" y="-22" type="line"/>
		</contour>
		<component base="C"/>
	</outline>
	<anchor name="aboveUC" x="398" y="676"/>
	<anchor name="belowLC" x="266" y="-22"/>
</glyph>
<glyph name="Lbar" format="2">
	<unicode hex="023D"/>
	<advance width="503"/>
	<outline>
		<contour>
			<point x="42" y="318" type="line"/>
			<point x="388" y="318" type="line"/>
			<point x="404" y="400" type="line"/>
			<point x="136" y="400" type="line"/>
			<point x="58" y="394" type="line"/>
		</contour>
		<component base="L" xOffset="22"/>
	</outline>
	<anchor name="aboveUC" x="246" y="676"/>
	<anchor name="belowLC" x="248" y="-22"/>
</glyph>
<glyph name="Bstroke" format="2">
	<unicode hex="0243"/>
	<advance width="604"/>
	<outline>
		<contour>
			<point x="50" y="0" type="line"/>
			<point x="273" y="0" type="line" smooth="yes"/>
			<point x="430" y="0"/>
			<point x="552" y="64"/>
			<point x="552" y="218" type="curve" smooth="yes"/>
			<point x="552" y="292"/>
			<point x="506" y="330"/>
			<point x="434" y="348" type="curve"/>
			<point x="434" y="352" type="line"/>
			<point x="514" y="372"/>
			<point x="582" y="432"/>
			<point x="582" y="512" type="curve" smooth="yes"/>
			<point x="582" y="608"/>
			<point x="498" y="654"/>
			<point x="368" y="654" type="curve" smooth="yes"/>
			<point x="180" y="654" type="line"/>
		</contour>
		<contour>
			<point x="0" y="160" type="line"/>
			<point x="330" y="160" type="line"/>
			<point x="350" y="248" type="line"/>
			<point x="100" y="248" type="line"/>
			<point x="18" y="242" type="line"/>
		</contour>
		<contour>
			<point x="176" y="86" type="line"/>
			<point x="222" y="310" type="line"/>
			<point x="320" y="310" type="line" smooth="yes"/>
			<point x="402" y="310"/>
			<point x="446" y="274"/>
			<point x="446" y="218" type="curve" smooth="yes"/>
			<point x="446" y="127"/>
			<point x="380" y="86"/>
			<point x="274" y="86" type="curve" smooth="yes"/>
		</contour>
		<contour>
			<point x="238" y="388" type="line"/>
			<point x="274" y="568" type="line"/>
			<point x="345" y="568" type="line" smooth="yes"/>
			<point x="428" y="568"/>
			<point x="468" y="543"/>
			<point x="468" y="496" type="curve" smooth="yes"/>
			<point x="468" y="431"/>
			<point x="416" y="388"/>
			<point x="313" y="388" type="curve" smooth="yes"/>
		</contour>
	</outline>
</glyph>
<glyph name="Ubar" format="2">
	<unicode hex="0244"/>
	<advance width="692"/>
	<outline>
		<contour>
			<point x="46" y="318" type="line"/>
			<point x="666" y="318" type="line"/>
			<point x="682" y="400" type="line"/>
			<point x="136" y="400" type="line"/>
			<point x="62" y="394" type="line"/>
		</contour>
		<component base="U" xOffset="26"/>
	</outline>
	<anchor name="aboveUC" x="430" y="676"/>
	<anchor name="belowLC" x="296" y="-22"/>
</glyph>
<glyph name="Jstroke" format="2">
	<unicode hex="0248"/>
	<advance width="494"/>
	<outline>
		<contour>
			<point x="184" y="318" type="line"/>
			<point x="482" y="318" type="line"/>
			<point x="498" y="400" type="line"/>
			<point x="310" y="400" type="line"/>
			<point x="200" y="394" type="line"/>
		</contour>
		<component base="J"/>
	</outline>
	<anchor name="aboveUC" x="428" y="676"/>
	<anchor name="belowLC" x="166" y="-22"/>
</glyph>
<glyph name="aturned" format="1">
	<unicode hex="0250"/>
	<advance width="499"/>
	<outline>
		<contour>
			<point x="220" y="-12" type="curve" smooth="yes"/>
			<point x="285" y="-12"/>
			<point x="352" y="13"/>
			<point x="415" y="49" type="curve"/>
			<point x="384" y="118" type="line"/>
			<point x="331" y="89"/>
			<point x="288" y="73"/>
			<point x="244" y="73" type="curve" smooth="yes"/>
			<point x="189" y="73"/>
			<point x="163" y="97"/>
			<point x="163" y="150" type="curve" smooth="yes"/>
			<point x="163" y="160"/>
			<point x="164" y="168"/>
			<point x="167" y="180" type="curve"/>
			<point x="380" y="200"/>
			<point x="482" y="278"/>
			<point x="482" y="399" type="curve" smooth="yes"/>
			<point x="482" y="463"/>
			<point x="440" y="503"/>
			<point x="375" y="503" type="curve" smooth="yes"/>
			<point x="312" y="503"/>
			<point x="254" y="468"/>
			<point x="208" y="428" type="curve"/>
			<point x="205" y="428" type="line"/>
			<point x="208" y="491" type="line"/>
			<point x="121" y="491" type="line"/>
			<point x="65" y="208" type="line" smooth="yes"/>
			<point x="59" y="184"/>
			<point x="57" y="163"/>
			<point x="57" y="143" type="curve" smooth="yes"/>
			<point x="57" y="36"/>
			<point x="117" y="-12"/>
		</contour>
		<contour>
			<point x="180" y="254" type="curve"/>
			<point x="201" y="359" type="line"/>
			<point x="242" y="396"/>
			<point x="283" y="420"/>
			<point x="322" y="420" type="curve" smooth="yes"/>
			<point x="353" y="420"/>
			<point x="377" y="401"/>
			<point x="377" y="363" type="curve" smooth="yes"/>
			<point x="377" y="302"/>
			<point x="308" y="268"/>
		</contour>
		<contour>
			<point name="aboveLC" x="316" y="513" type="move"/>
		</contour>
		<contour>
			<point name="belowLC" x="226" y="-22" type="move"/>
		</contour>
		<contour>
			<point name="ogonekLC" x="274" y="0" type="move"/>
		</contour>
	</outline>
</glyph>
<glyph name="ccurl" format="2">
	<unicode hex="0255"/>
	<advance width="463"/>
	<outline>
		<contour>
			<point x="60" y="-72" type="line"/>
			<point x="132" y="72"/>
			<point x="236" y="164"/>
			<point x="296" y="164" type="curve" smooth="yes"/>
			<point x="322" y="164"/>
			<point x="334" y="149"/>
			<point x="334" y="130" type="curve" smooth="yes"/>
			<point x="334" y="104"/>
			<point x="297" y="77"/>
			<point x="252" y="77" type="curve" smooth="yes"/>
			<point x="180" y="77"/>
			<point x="145" y="119"/>
			<point x="145" y="192" type="curve" smooth="yes"/>
			<point x="145" y="313"/>
			<point x="221" y="414"/>
			<point x="308" y="414" type="curve" smooth="yes"/>
			<point x="341" y="414"/>
			<point x="362" y="402"/>
			<point x="384" y="379" type="curve"/>
			<point x="445" y="443" type="line"/>
			<point x="420" y="475"/>
			<point x="376" y="504"/>
			<point x="315" y="504" type="curve" smooth="yes"/>
			<point x="162" y="504"/>
			<point x="33" y="364"/>
			<point x="33" y="188" type="curve" smooth="yes"/>
			<point x="33" y="61"/>
			<point x="115" y="-12"/>
			<point x="229" y="-12" type="curve" smooth="yes"/>
			<point x="333" y="-12"/>
			<point x="418" y="59"/>
			<point x="422" y="144" type="curve" smooth="yes"/>
			<point x="425" y="203"/>
			<point x="386" y="244"/>
			<point x="320" y="244" type="curve" smooth="yes"/>
			<point x="212" y="244"/>
			<point x="92" y="148"/>
			<point x="-14" y="-38" type="curve"/>
		</contour>
	</outline>
	<anchor name="aboveLC" x="296" y="513"/>
	<anchor name="belowLC" x="232" y="-22"/>
</glyph>
<glyph name="ereversed" format="1">
	<unicode hex="0258"/>
	<advance width="488"/>
	<outline>
		<contour>
			<point x="173" y="-12" type="curve" smooth="yes"/>
			<point x="356" y="-12"/>
			<point x="456" y="138"/>
			<point x="456" y="312" type="curve" smooth="yes"/>
			<point x="456" y="434"/>
			<point x="384" y="503"/>
			<point x="282" y="503" type="curve" smooth="yes"/>
			<point x="138" y="503"/>
			<point x="38" y="370"/>
			<point x="35" y="214" type="curve"/>
			<point x="338" y="214" type="line"/>
			<point x="318" y="134"/>
			<point x="260" y="72"/>
			<point x="171" y="72" type="curve" smooth="yes"/>
			<point x="127" y="72"/>
			<point x="90" y="85"/>
			<point x="59" y="108" type="curve"/>
			<point x="15" y="43" type="line"/>
			<point x="55" y="9"/>
			<point x="112" y="-12"/>
		</contour>
		<contour>
			<point x="131" y="294" type="line"/>
			<point x="146" y="362"/>
			<point x="197" y="420"/>
			<point x="264" y="420" type="curve" smooth="yes"/>
			<point x="322" y="420"/>
			<point x="352" y="378"/>
			<point x="352" y="310" type="curve" smooth="yes"/>
			<point x="352" y="306"/>
			<point x="352" y="302"/>
			<point x="350" y="294" type="curve"/>
		</contour>
		<contour>
			<point name="aboveLC" x="298" y="514" type="move"/>
		</contour>
		<contour>
			<point name="belowLC" x="196" y="-22" type="move"/>
		</contour>
		<contour>
			<point name="ogonekLC" x="212" y="0" type="move"/>
		</contour>
	</outline>
</glyph>
<glyph name="schwa" format="1">
	<unicode hex="0259"/>
	<advance width="488"/>
	<outline>
		<contour>
			<point x="189" y="-12" type="curve" smooth="yes"/>
			<point x="319" y="-12"/>
			<point x="452" y="112"/>
			<point x="452" y="295" type="curve" smooth="yes"/>
			<point x="452" y="432"/>
			<point x="377" y="503"/>
			<point x="270" y="503" type="curve" smooth="yes"/>
			<point x="209" y="503"/>
			<point x="158" y="484"/>
			<point x="108" y="456" type="curve"/>
			<point x="142" y="388" type="line"/>
			<point x="176" y="406"/>
			<point x="212" y="420"/>
			<point x="246" y="420" type="curve" smooth="yes"/>
			<point x="312" y="420"/>
			<point x="356" y="375"/>
			<point x="349" y="282" type="curve"/>
			<point x="50" y="282" type="line"/>
			<point x="38" y="254"/>
			<point x="28" y="208"/>
			<point x="28" y="169" type="curve" smooth="yes"/>
			<point x="28" y="68"/>
			<point x="74" y="-12"/>
		</contour>
		<contour>
			<point x="201" y="72" type="curve" smooth="yes"/>
			<point x="141" y="72"/>
			<point x="117" y="113"/>
			<point x="117" y="162" type="curve" smooth="yes"/>
			<point x="117" y="175"/>
			<point x="119" y="190"/>
			<point x="123" y="202" type="curve"/>
			<point x="340" y="202" type="line"/>
			<point x="316" y="118"/>
			<point x="258" y="72"/>
		</contour>
		<contour>
			<point name="aboveLC" x="292" y="514" type="move"/>
		</contour>
		<contour>
			<point name="belowLC" x="182" y="-22" type="move"/>
		</contour>
		<contour>
			<point name="ogonekLC" x="186" y="0" type="move"/>
		</contour>
	</outline>
</glyph>
<glyph name="schwahookrhotic" format="1">
	<unicode hex="025A"/>
	<advance width="672"/>
	<outline>
		<contour>
			<point x="190" y="-12" type="curve" smooth="yes"/>
			<point x="328" y="-12"/>
			<point x="450" y="122"/>
			<point x="450" y="302" type="curve" smooth="yes"/>
			<point x="450" y="436"/>
			<point x="376" y="503"/>
			<point x="270" y="503" type="curve" smooth="yes"/>
			<point x="203" y="503"/>
			<point x="156" y="485"/>
			<point x="103" y="456" type="curve"/>
			<point x="136" y="386" type="line"/>
			<point x="173" y="406"/>
			<point x="208" y="420"/>
			<point x="248" y="420" type="curve" smooth="yes"/>
			<point x="304" y="420"/>
			<point x="349" y="385"/>
			<point x="349" y="299" type="curve" smooth="yes"/>
			<point x="349" y="157"/>
			<point x="275" y="72"/>
			<point x="200" y="72" type="curve" smooth="yes"/>
			<point x="140" y="72"/>
			<point x="106" y="110"/>
			<point x="106" y="162" type="curve"/>
			<point x="526" y="322" type="line"/>
			<point x="521" y="303"/>
			<point x="520" y="286"/>
			<point x="520" y="271" type="curve" smooth="yes"/>
			<point x="520" y="217"/>
			<point x="560" y="194"/>
			<point x="601" y="194" type="curve" smooth="yes"/>
			<point x="634" y="194"/>
			<point x="659" y="205"/>
			<point x="678" y="219" type="curve"/>
			<point x="660" y="274" type="line"/>
			<point x="649" y="267"/>
			<point x="637" y="262"/>
			<point x="624" y="262" type="curve" smooth="yes"/>
			<point x="599" y="262"/>
			<point x="586" y="274"/>
			<point x="586" y="310" type="curve" smooth="yes"/>
			<point x="586" y="334"/>
			<point x="590" y="367"/>
			<point x="604" y="414" type="curve"/>
			<point x="594" y="426" type="line"/>
			<point x="19" y="212" type="line"/>
			<point x="18" y="205"/>
			<point x="17" y="191"/>
			<point x="17" y="180" type="curve" smooth="yes"/>
			<point x="17" y="71"/>
			<point x="74" y="-12"/>
		</contour>
		<contour>
			<point name="aboveLC" x="278" y="513" type="move"/>
		</contour>
		<contour>
			<point name="belowLC" x="210" y="-21" type="move"/>
		</contour>
	</outline>
</glyph>
<glyph name="eopen" format="1">
	<unicode hex="025B"/>
	<advance width="431"/>
	<outline>
		<contour>
			<point x="204" y="-12" type="curve" smooth="yes"/>
			<point x="262" y="-12"/>
			<point x="316" y="4"/>
			<point x="378" y="42" type="curve"/>
			<point x="340" y="110" type="line"/>
			<point x="294" y="82"/>
			<point x="260" y="72"/>
			<point x="220" y="72" type="curve" smooth="yes"/>
			<point x="167" y="72"/>
			<point x="129" y="95"/>
			<point x="129" y="138" type="curve" smooth="yes"/>
			<point x="129" y="184"/>
			<point x="171" y="214"/>
			<point x="246" y="214" type="curve" smooth="yes"/>
			<point x="319" y="214" type="line"/>
			<point x="336" y="296" type="line"/>
			<point x="275" y="296" type="line" smooth="yes"/>
			<point x="220" y="296"/>
			<point x="194" y="316"/>
			<point x="194" y="347" type="curve" smooth="yes"/>
			<point x="194" y="389"/>
			<point x="229" y="418"/>
			<point x="289" y="418" type="curve" smooth="yes"/>
			<point x="326" y="418"/>
			<point x="356" y="408"/>
			<point x="388" y="388" type="curve"/>
			<point x="434" y="456" type="line"/>
			<point x="394" y="486"/>
			<point x="350" y="503"/>
			<point x="294" y="503" type="curve" smooth="yes"/>
			<point x="167" y="503"/>
			<point x="88" y="436"/>
			<point x="88" y="356" type="curve" smooth="yes"/>
			<point x="88" y="311"/>
			<point x="114" y="279"/>
			<point x="156" y="263" type="curve"/>
			<point x="156" y="260" type="line"/>
			<point x="87" y="243"/>
			<point x="20" y="200"/>
			<point x="20" y="112" type="curve" smooth="yes"/>
			<point x="20" y="30"/>
			<point x="101" y="-12"/>
		</contour>
		<contour>
			<point name="aboveLC" x="292" y="513" type="move"/>
		</contour>
		<contour>
			<point name="baseLC" x="188" y="0" type="move"/>
		</contour>
		<contour>
			<point name="belowLC" x="184" y="-21" type="move"/>
		</contour>
	</outline>
</glyph>
<glyph name="eopenreversed" format="2">
	<unicode hex="025C"/>
	<advance width="431"/>
	<outline>
		<contour>
			<point x="164" y="-12" type="curve" smooth="yes"/>
			<point x="280" y="-12"/>
			<point x="388" y="58"/>
			<point x="388" y="158" type="curve" smooth="yes"/>
			<point x="388" y="210"/>
			<point x="356" y="242"/>
			<point x="301" y="256" type="curve"/>
			<point x="301" y="260" type="line"/>
			<point x="362" y="280"/>
			<point x="408" y="326"/>
			<point x="408" y="390" type="curve" smooth="yes"/>
			<point x="408" y="464"/>
			<point x="338" y="504"/>
			<point x="256" y="504" type="curve" smooth="yes"/>
			<point x="196" y="504"/>
			<point x="142" y="488"/>
			<point x="88" y="456" type="curve"/>
			<point x="118" y="386" type="line"/>
			<point x="156" y="406"/>
			<point x="190" y="418"/>
			<point x="228" y="418" type="curve" smooth="yes"/>
			<point x="268" y="418"/>
			<point x="298" y="400"/>
			<point x="298" y="366" type="curve" smooth="yes"/>
			<point x="298" y="327"/>
			<point x="261" y="294"/>
			<point x="192" y="294" type="curve" smooth="yes"/>
			<point x="140" y="294" type="line"/>
			<point x="124" y="214" type="line"/>
			<point x="184" y="214" type="line" smooth="yes"/>
			<point x="246" y="214"/>
			<point x="278" y="194"/>
			<point x="278" y="156" type="curve" smooth="yes"/>
			<point x="278" y="108"/>
			<point x="228" y="74"/>
			<point x="160" y="74" type="curve" smooth="yes"/>
			<point x="118" y="74"/>
			<point x="78" y="82"/>
			<point x="42" y="108" type="curve"/>
			<point x="2" y="40" type="line"/>
			<point x="50" y="2"/>
			<point x="106" y="-12"/>
		</contour>
	</outline>
	<anchor name="aboveLC" x="266" y="513"/>
	<anchor name="belowLC" x="166" y="-21"/>
</glyph>
<glyph name="eopenreversedclosed" format="1">
	<unicode hex="025E"/>
	<advance width="514"/>
	<outline>
		<contour>
			<point x="238" y="-12" type="curve" smooth="yes"/>
			<point x="359" y="-12"/>
			<point x="469" y="60"/>
			<point x="469" y="164" type="curve" smooth="yes"/>
			<point x="469" y="216"/>
			<point x="436" y="243"/>
			<point x="383" y="257" type="curve"/>
			<point x="383" y="260" type="line"/>
			<point x="444" y="280"/>
			<point x="488" y="328"/>
			<point x="488" y="390" type="curve" smooth="yes"/>
			<point x="488" y="468"/>
			<point x="417" y="503"/>
			<point x="331" y="503" type="curve" smooth="yes"/>
			<point x="172" y="503"/>
			<point x="34" y="372"/>
			<point x="34" y="182" type="curve" smooth="yes"/>
			<point x="34" y="63"/>
			<point x="106" y="-12"/>
		</contour>
		<contour>
			<point x="252" y="72" type="curve" smooth="yes"/>
			<point x="177" y="72"/>
			<point x="142" y="114"/>
			<point x="142" y="185" type="curve" smooth="yes"/>
			<point x="142" y="315"/>
			<point x="218" y="418"/>
			<point x="312" y="418" type="curve" smooth="yes"/>
			<point x="354" y="418"/>
			<point x="383" y="399"/>
			<point x="383" y="364" type="curve" smooth="yes"/>
			<point x="383" y="327"/>
			<point x="347" y="296"/>
			<point x="276" y="296" type="curve" smooth="yes"/>
			<point x="260" y="296" type="line"/>
			<point x="244" y="214" type="line"/>
			<point x="265" y="214" type="line" smooth="yes"/>
			<point x="329" y="214"/>
			<point x="363" y="195"/>
			<point x="363" y="159" type="curve" smooth="yes"/>
			<point x="363" y="107"/>
			<point x="317" y="72"/>
		</contour>
		<contour>
			<point name="aboveLC" x="332" y="513" type="move"/>
		</contour>
		<contour>
			<point name="belowLC" x="226" y="-21" type="move"/>
		</contour>
	</outline>
</glyph>
<glyph name="dotlessjstroke" format="2">
	<unicode hex="025F"/>
	<advance width="288"/>
	<outline>
		<contour>
			<point x="-8" y="214" type="line"/>
			<point x="276" y="214" type="line"/>
			<point x="292" y="294" type="line"/>
			<point x="100" y="294" type="line"/>
			<point x="6" y="288" type="line"/>
		</contour>
		<component base="dotlessj" xOffset="16"/>
	</outline>
	<anchor name="aboveLC" x="190" y="514"/>
	<anchor name="belowLC" x="2" y="-210"/>
</glyph>
<glyph name="lbelt" format="1">
	<unicode hex="026C"/>
	<advance width="360"/>
	<outline>
		<contour>
			<point x="138" y="298" type="curve" smooth="yes"/>
			<point x="356" y="298" type="line"/>
			<point x="370" y="378" type="line"/>
			<point x="132" y="378" type="line" smooth="yes"/>
			<point x="99" y="378"/>
			<point x="84" y="390"/>
			<point x="84" y="408" type="curve" smooth="yes"/>
			<point x="84" y="424"/>
			<point x="94" y="436"/>
			<point x="113" y="436" type="curve" smooth="yes"/>
			<point x="142" y="436"/>
			<point x="156" y="406"/>
			<point x="156" y="380" type="curve"/>
			<point x="196" y="392" type="line"/>
			<point x="196" y="435"/>
			<point x="177" y="496"/>
			<point x="106" y="496" type="curve" smooth="yes"/>
			<point x="50" y="496"/>
			<point x="16" y="450"/>
			<point x="16" y="404" type="curve" smooth="yes"/>
			<point x="16" y="345"/>
			<point x="58" y="298"/>
		</contour>
		<component base="l.a" xOffset="56"/>
		<contour>
			<point name="aboveUC" x="276" y="724" type="move"/>
		</contour>
		<contour>
			<point name="belowLC" x="158" y="-22" type="move"/>
		</contour>
	</outline>
</glyph>
<glyph name="nsmall" format="1">
	<unicode hex="0274"/>
	<advance width="531"/>
	<outline>
		<contour>
			<point x="22" y="0" type="line"/>
			<point x="123" y="0" type="line"/>
			<point x="158" y="170" type="line" smooth="yes"/>
			<point x="169" y="222"/>
			<point x="178" y="286"/>
			<point x="182" y="350" type="curve"/>
			<point x="186" y="350" type="line"/>
			<point x="196" y="304"/>
			<point x="206" y="266"/>
			<point x="216" y="240" type="curve" smooth="yes"/>
			<point x="306" y="0" type="line"/>
			<point x="408" y="0" type="line"/>
			<point x="506" y="491" type="line"/>
			<point x="405" y="491" type="line"/>
			<point x="372" y="321" type="line" smooth="yes"/>
			<point x="362" y="270"/>
			<point x="352" y="204"/>
			<point x="346" y="142" type="curve"/>
			<point x="343" y="142" type="line"/>
			<point x="332" y="188"/>
			<point x="322" y="226"/>
			<point x="312" y="252" type="curve" smooth="yes"/>
			<point x="224" y="491" type="line"/>
			<point x="121" y="491" type="line"/>
		</contour>
		<contour>
			<point name="aboveLC" x="312" y="514" type="move"/>
		</contour>
		<contour>
			<point name="belowLC" x="226" y="-22" type="move"/>
		</contour>
	</outline>
</glyph>
<glyph name="obar" format="1">
	<unicode hex="0275"/>
	<advance width="524"/>
	<outline>
		<contour>
			<point x="217" y="-12" type="curve" smooth="yes"/>
			<point x="352" y="-12"/>
			<point x="488" y="116"/>
			<point x="488" y="303" type="curve" smooth="yes"/>
			<point x="488" y="426"/>
			<point x="415" y="503"/>
			<point x="304" y="503" type="curve" smooth="yes"/>
			<point x="170" y="503"/>
			<point x="34" y="376"/>
			<point x="34" y="188" type="curve" smooth="yes"/>
			<point x="34" y="66"/>
			<point x="107" y="-12"/>
		</contour>
		<contour>
			<point x="228" y="72" type="curve" smooth="yes"/>
			<point x="165" y="72"/>
			<point x="135" y="116"/>
			<point x="135" y="192" type="curve" smooth="yes"/>
			<point x="135" y="316"/>
			<point x="208" y="418"/>
			<point x="294" y="418" type="curve" smooth="yes"/>
			<point x="356" y="418"/>
			<point x="386" y="374"/>
			<point x="386" y="300" type="curve" smooth="yes"/>
			<point x="386" y="174"/>
			<point x="314" y="72"/>
		</contour>
		<contour>
			<point x="121" y="214" type="line"/>
			<point x="389" y="214" type="line"/>
			<point x="404" y="294" type="line"/>
			<point x="136" y="294" type="line"/>
		</contour>
		<contour>
			<point name="aboveLC" x="320" y="514" type="move"/>
		</contour>
		<contour>
			<point name="belowLC" x="196" y="-22" type="move"/>
		</contour>
		<contour>
			<point name="ogonekLC" x="202" y="0" type="move"/>
		</contour>
	</outline>
</glyph>
<glyph name="oesmall" format="1">
	<unicode hex="0276"/>
	<advance width="687"/>
	<outline>
		<contour>
			<point x="227" y="-12" type="curve" smooth="yes"/>
			<point x="259" y="-12"/>
			<point x="288" y="-10"/>
			<point x="332" y="0" type="curve"/>
			<point x="604" y="0" type="line"/>
			<point x="620" y="86" type="line"/>
			<point x="406" y="86" type="line"/>
			<point x="432" y="214" type="line"/>
			<point x="604" y="214" type="line"/>
			<point x="622" y="296" type="line"/>
			<point x="449" y="296" type="line"/>
			<point x="470" y="406" type="line"/>
			<point x="674" y="406" type="line"/>
			<point x="692" y="491" type="line"/>
			<point x="428" y="491" type="line"/>
			<point x="388" y="501"/>
			<point x="362" y="503"/>
			<point x="328" y="503" type="curve" smooth="yes"/>
			<point x="176" y="503"/>
			<point x="34" y="375"/>
			<point x="34" y="186" type="curve" smooth="yes"/>
			<point x="34" y="52"/>
			<point x="119" y="-12"/>
		</contour>
		<contour>
			<point x="248" y="75" type="curve" smooth="yes"/>
			<point x="188" y="75"/>
			<point x="142" y="110"/>
			<point x="142" y="199" type="curve" smooth="yes"/>
			<point x="142" y="321"/>
			<point x="220" y="416"/>
			<point x="316" y="416" type="curve" smooth="yes"/>
			<point x="332" y="416"/>
			<point x="349" y="414"/>
			<point x="366" y="409" type="curve"/>
			<point x="301" y="83" type="line"/>
			<point x="283" y="78"/>
			<point x="263" y="75"/>
		</contour>
		<contour>
			<point name="aboveLC" x="432" y="514" type="move"/>
		</contour>
		<contour>
			<point name="belowLC" x="350" y="-22" type="move"/>
		</contour>
	</outline>
</glyph>
<glyph name="rsmall" format="1">
	<unicode hex="0280"/>
	<advance width="490"/>
	<outline>
		<contour>
			<point x="22" y="0" type="line"/>
			<point x="130" y="0" type="line"/>
			<point x="166" y="178" type="line"/>
			<point x="241" y="178" type="line" smooth="yes"/>
			<point x="370" y="178"/>
			<point x="462" y="252"/>
			<point x="462" y="366" type="curve" smooth="yes"/>
			<point x="462" y="459"/>
			<point x="392" y="491"/>
			<point x="297" y="491" type="curve" smooth="yes"/>
			<point x="121" y="491" type="line"/>
		</contour>
		<contour>
			<point x="180" y="256" type="line"/>
			<point x="210" y="408" type="line"/>
			<point x="268" y="408" type="line" smooth="yes"/>
			<point x="324" y="408"/>
			<point x="352" y="389"/>
			<point x="352" y="344" type="curve" smooth="yes"/>
			<point x="352" y="295"/>
			<point x="310" y="256"/>
			<point x="240" y="256" type="curve" smooth="yes"/>
		</contour>
		<contour>
			<point x="306" y="0" type="line"/>
			<point x="424" y="0" type="line"/>
			<point x="322" y="237" type="line"/>
			<point x="230" y="205" type="line"/>
		</contour>
		<contour>
			<point name="aboveLC" x="302" y="514" type="move"/>
		</contour>
		<contour>
			<point name="belowLC" x="228" y="-22" type="move"/>
		</contour>
	</outline>
</glyph>
<glyph name="rsmallinverted" format="1">
	<unicode hex="0281"/>
	<advance width="490"/>
	<outline>
		<contour>
			<point x="194" y="0" type="curve" smooth="yes"/>
			<point x="370" y="0" type="line"/>
			<point x="469" y="491" type="line"/>
			<point x="361" y="491" type="line"/>
			<point x="325" y="313" type="line"/>
			<point x="250" y="313" type="line" smooth="yes"/>
			<point x="121" y="313"/>
			<point x="29" y="239"/>
			<point x="29" y="125" type="curve" smooth="yes"/>
			<point x="29" y="32"/>
			<point x="99" y="0"/>
		</contour>
		<contour>
			<point x="223" y="83" type="line" smooth="yes"/>
			<point x="167" y="83"/>
			<point x="139" y="102"/>
			<point x="139" y="147" type="curve" smooth="yes"/>
			<point x="139" y="196"/>
			<point x="181" y="235"/>
			<point x="251" y="235" type="curve" smooth="yes"/>
			<point x="311" y="235" type="line"/>
			<point x="281" y="83" type="line"/>
		</contour>
		<contour>
			<point x="169" y="254" type="line"/>
			<point x="261" y="286" type="line"/>
			<point x="185" y="491" type="line"/>
			<point x="67" y="491" type="line"/>
		</contour>
		<contour>
			<point name="aboveLC" x="276" y="514" type="move"/>
		</contour>
		<contour>
			<point name="belowLC" x="210" y="-22" type="move"/>
		</contour>
	</outline>
</glyph>
<glyph name="esh" format="2">
	<unicode hex="0283"/>
	<advance width="252"/>
	<outline>
		<contour>
			<point x="-42" y="-206" type="curve" smooth="yes"/>
			<point x="54" y="-206"/>
			<point x="103" y="-137"/>
			<point x="123" y="-38" type="curve" smooth="yes"/>
			<point x="238" y="539" type="line" smooth="yes"/>
			<point x="250" y="603"/>
			<point x="271" y="633"/>
			<point x="320" y="633" type="curve" smooth="yes"/>
			<point x="332" y="633"/>
			<point x="345" y="630"/>
			<point x="356" y="626" type="curve"/>
			<point x="392" y="704" type="line"/>
			<point x="376" y="711"/>
			<point x="348" y="719"/>
			<point x="323" y="719" type="curve" smooth="yes"/>
			<point x="204" y="719"/>
			<point x="153" y="648"/>
			<point x="131" y="539" type="curve" smooth="yes"/>
			<point x="16" y="-36" type="line" smooth="yes"/>
			<point x="5" y="-92"/>
			<point x="-14" y="-120"/>
			<point x="-50" y="-120" type="curve" smooth="yes"/>
			<point x="-68" y="-120"/>
			<point x="-81" y="-116"/>
			<point x="-94" y="-108" type="curve"/>
			<point x="-128" y="-186" type="line"/>
			<point x="-100" y="-200"/>
			<point x="-75" y="-206"/>
		</contour>
	</outline>
	<anchor name="aboveUC" x="292" y="726"/>
	<anchor name="belowLC" x="-10" y="-198"/>
</glyph>
<glyph name="dotlessjstrokehook" format="1">
	<unicode hex="0284"/>
	<advance width="288"/>
	<outline>
		<contour>
			<point x="-6" y="214" type="line"/>
			<point x="276" y="214" type="line"/>
			<point x="290" y="294" type="line"/>
			<point x="100" y="294" type="line"/>
			<point x="8" y="288" type="line"/>
		</contour>
		<component base="esh" xOffset="16"/>
		<contour>
			<point name="aboveUC" x="304" y="724" type="move"/>
		</contour>
		<contour>
			<point name="belowLC" x="2" y="-208" type="move"/>
		</contour>
	</outline>
</glyph>
<glyph name="ubar" format="1">
	<unicode hex="0289"/>
	<advance width="543"/>
	<outline>
		<contour>
			<point x="16" y="254" type="line"/>
			<point x="566" y="254" type="line"/>
			<point x="582" y="334" type="line"/>
			<point x="112" y="334" type="line"/>
			<point x="30" y="328" type="line"/>
		</contour>
		<component base="u" xOffset="22"/>
		<contour>
			<point name="aboveLC" x="335" y="514" type="move"/>
		</contour>
		<contour>
			<point name="baseLC" x="221" y="0" type="move"/>
		</contour>
		<contour>
			<point name="belowLC" x="251" y="-27" type="move"/>
		</contour>
		<contour>
			<point name="ogonekLC" x="361" y="0" type="move"/>
		</contour>
	</outline>
</glyph>
<glyph name="zcurl" format="2">
	<unicode hex="0291"/>
	<advance width="464"/>
	<outline>
		<contour>
			<point x="206" y="-82" type="line"/>
			<point x="274" y="88"/>
			<point x="332" y="164"/>
			<point x="368" y="164" type="curve" smooth="yes"/>
			<point x="388" y="164"/>
			<point x="396" y="154"/>
			<point x="396" y="138" type="curve" smooth="yes"/>
			<point x="396" y="112"/>
			<point x="366" y="82"/>
			<point x="310" y="82" type="curve" smooth="yes"/>
			<point x="252" y="82"/>
			<point x="196" y="82"/>
			<point x="136" y="86" type="curve"/>
			<point x="428" y="428" type="line"/>
			<point x="440" y="492" type="line"/>
			<point x="110" y="492" type="line"/>
			<point x="92" y="404" type="line"/>
			<point x="292" y="404" type="line"/>
			<point x="2" y="64" type="line"/>
			<point x="-10" y="0" type="line"/>
			<point x="84" y="0"/>
			<point x="170" y="-6"/>
			<point x="260" y="-6" type="curve" smooth="yes"/>
			<point x="406" y="-6"/>
			<point x="460" y="84"/>
			<point x="460" y="156" type="curve" smooth="yes"/>
			<point x="460" y="202"/>
			<point x="428" y="228"/>
			<point x="380" y="228" type="curve" smooth="yes"/>
			<point x="284" y="228"/>
			<point x="212" y="110"/>
			<point x="138" y="-68" type="curve"/>
		</contour>
	</outline>
	<anchor name="aboveLC" x="285" y="513"/>
	<anchor name="belowLC" x="177" y="-62"/>
</glyph>
<glyph name="glottalstop" format="1">
	<unicode hex="0294"/>
	<advance width="422"/>
	<outline>
		<contour>
			<point x="85" y="0" type="line"/>
			<point x="192" y="0" type="line"/>
			<point x="247" y="276" type="line"/>
			<point x="389" y="357"/>
			<point x="459" y="454"/>
			<point x="459" y="563" type="curve" smooth="yes"/>
			<point x="459" y="664"/>
			<point x="385" y="718"/>
			<point x="287" y="718" type="curve" smooth="yes"/>
			<point x="196" y="718"/>
			<point x="123" y="677"/>
			<point x="71" y="630" type="curve"/>
			<point x="113" y="563" type="line"/>
			<point x="152" y="600"/>
			<point x="204" y="631"/>
			<point x="258" y="631" type="curve" smooth="yes"/>
			<point x="316" y="631"/>
			<point x="349" y="598"/>
			<point x="349" y="540" type="curve" smooth="yes"/>
			<point x="349" y="468"/>
			<point x="296" y="399"/>
			<point x="148" y="320" type="curve"/>
		</contour>
	</outline>
</glyph>
<glyph name="glottalstopreversed" format="1">
	<unicode hex="0295"/>
	<advance width="422"/>
	<outline>
		<contour>
			<point x="129" y="0" type="line"/>
			<point x="236" y="0" type="line"/>
			<point x="299" y="319" type="line"/>
			<point x="213" y="380"/>
			<point x="176" y="431"/>
			<point x="176" y="494" type="curve" smooth="yes"/>
			<point x="176" y="572"/>
			<point x="232" y="631"/>
			<point x="312" y="631" type="curve" smooth="yes"/>
			<point x="369" y="631"/>
			<point x="409" y="601"/>
			<point x="436" y="564" type="curve"/>
			<point x="500" y="629" type="line"/>
			<point x="466" y="677"/>
			<point x="409" y="718"/>
			<point x="318" y="718" type="curve" smooth="yes"/>
			<point x="178" y="718"/>
			<point x="66" y="620"/>
			<point x="66" y="479" type="curve" smooth="yes"/>
			<point x="66" y="393"/>
			<point x="115" y="335"/>
			<point x="184" y="276" type="curve"/>
		</contour>
	</outline>
</glyph>
<glyph name="clickbilabial" format="1">
	<unicode hex="0298"/>
	<advance width="494"/>
	<outline>
		<contour>
			<point x="193" y="-12" type="curve" smooth="yes"/>
			<point x="371" y="-12"/>
			<point x="490" y="245"/>
			<point x="490" y="506" type="curve" smooth="yes"/>
			<point x="490" y="655"/>
			<point x="426" y="718"/>
			<point x="333" y="718" type="curve" smooth="yes"/>
			<point x="155" y="718"/>
			<point x="36" y="462"/>
			<point x="36" y="200" type="curve" smooth="yes"/>
			<point x="36" y="52"/>
			<point x="100" y="-12"/>
		</contour>
		<contour>
			<point x="211" y="81" type="curve" smooth="yes"/>
			<point x="170" y="81"/>
			<point x="137" y="110"/>
			<point x="137" y="207" type="curve" smooth="yes"/>
			<point x="137" y="401"/>
			<point x="217" y="625"/>
			<point x="315" y="625" type="curve" smooth="yes"/>
			<point x="356" y="625"/>
			<point x="389" y="596"/>
			<point x="389" y="499" type="curve" smooth="yes"/>
			<point x="389" y="305"/>
			<point x="309" y="81"/>
		</contour>
		<contour>
			<point x="254" y="286" type="curve" smooth="yes"/>
			<point x="296" y="286"/>
			<point x="332" y="320"/>
			<point x="332" y="368" type="curve" smooth="yes"/>
			<point x="332" y="404"/>
			<point x="306" y="424"/>
			<point x="276" y="424" type="curve" smooth="yes"/>
			<point x="234" y="424"/>
			<point x="198" y="390"/>
			<point x="198" y="342" type="curve" smooth="yes"/>
			<point x="198" y="306"/>
			<point x="224" y="286"/>
		</contour>
		<contour>
			<point name="aboveUC" x="348" y="724" type="move"/>
		</contour>
		<contour>
			<point name="belowLC" x="190" y="-22" type="move"/>
		</contour>
	</outline>
</glyph>
<glyph name="bsmall" format="2">
	<unicode hex="0299"/>
	<advance width="496"/>
	<outline>
		<contour>
			<point x="22" y="0" type="line"/>
			<point x="226" y="0" type="line" smooth="yes"/>
			<point x="368" y="0"/>
			<point x="450" y="69"/>
			<point x="450" y="164" type="curve" smooth="yes"/>
			<point x="450" y="216"/>
			<point x="416" y="244"/>
			<point x="362" y="256" type="curve"/>
			<point x="362" y="260" type="line"/>
			<point x="424" y="280"/>
			<point x="470" y="326"/>
			<point x="470" y="388" type="curve" smooth="yes"/>
			<point x="470" y="464"/>
			<point x="400" y="492"/>
			<point x="312" y="492" type="curve" smooth="yes"/>
			<point x="120" y="492" type="line"/>
		</contour>
		<contour>
			<point x="190" y="294" type="line"/>
			<point x="214" y="412" type="line"/>
			<point x="284" y="412" type="line" smooth="yes"/>
			<point x="338" y="412"/>
			<point x="362" y="395"/>
			<point x="362" y="362" type="curve" smooth="yes"/>
			<point x="362" y="325"/>
			<point x="326" y="294"/>
			<point x="258" y="294" type="curve" smooth="yes"/>
		</contour>
		<contour>
			<point x="147" y="80" type="line"/>
			<point x="174" y="214" type="line"/>
			<point x="244" y="214" type="line" smooth="yes"/>
			<point x="312" y="214"/>
			<point x="340" y="196"/>
			<point x="340" y="158" type="curve" smooth="yes"/>
			<point x="340" y="119"/>
			<point x="304" y="80"/>
			<point x="228" y="80" type="curve" smooth="yes"/>
		</contour>
	</outline>
	<anchor name="aboveLC" x="300" y="514"/>
	<anchor name="belowLC" x="214" y="-22"/>
</glyph>
<glyph name="glottalstopstroke" format="1">
	<unicode hex="02A1"/>
	<advance width="430"/>
	<outline>
		<contour>
			<point x="-2" y="126" type="line"/>
			<point x="330" y="126" type="line"/>
			<point x="346" y="206" type="line"/>
			<point x="106" y="206" type="line"/>
			<point x="12" y="201" type="line"/>
		</contour>
		<component base="glottalstop" xOffset="4"/>
		<contour>
			<point name="aboveUC" x="308" y="724" type="move"/>
		</contour>
		<contour>
			<point name="belowLC" x="136" y="-22" type="move"/>
		</contour>
	</outline>
</glyph>
<glyph name="glottalstopstrokereversed" format="1">
	<unicode hex="02A2"/>
	<advance width="430"/>
	<outline>
		<contour>
			<point x="44" y="126" type="line"/>
			<point x="376" y="126" type="line"/>
			<point x="392" y="206" type="line"/>
			<point x="152" y="206" type="line"/>
			<point x="58" y="201" type="line"/>
		</contour>
		<component base="glottalstopreversed" xOffset="4"/>
	</outline>
</glyph>
<glyph name="w.sups" format="1">
	<unicode hex="02B7"/>
	<advance width="492"/>
	<outline>
		<contour>
			<point x="129" y="385" type="line"/>
			<point x="224" y="385" type="line"/>
			<point x="288" y="534" type="line"/>
			<point x="320" y="625" type="line"/>
			<point x="324" y="625" type="line"/>
			<point x="322" y="535" type="line"/>
			<point x="328" y="385" type="line"/>
			<point x="423" y="385" type="line"/>
			<point x="567" y="710" type="line"/>
			<point x="494" y="710" type="line"/>
			<point x="424" y="542" type="line"/>
			<point x="389" y="446" type="line"/>
			<point x="386" y="446" type="line"/>
			<point x="386" y="542" type="line"/>
			<point x="376" y="710" type="line"/>
			<point x="300" y="710" type="line"/>
			<point x="226" y="542" type="line"/>
			<point x="192" y="446" type="line"/>
			<point x="188" y="446" type="line"/>
			<point x="189" y="542" type="line"/>
			<point x="184" y="710" type="line"/>
			<point x="107" y="710" type="line"/>
		</contour>
		<contour>
			<point name="belowLC" x="224" y="-22" type="move"/>
		</contour>
	</outline>
</glyph>
<glyph name="Gamma" format="1">
	<unicode hex="0393"/>
	<advance width="484"/>
	<outline>
		<contour>
			<point x="32" y="0" type="line"/>
			<point x="140" y="0" type="line"/>
			<point x="251" y="563" type="line"/>
			<point x="521" y="563" type="line"/>
			<point x="539" y="654" type="line"/>
			<point x="162" y="654" type="line"/>
		</contour>
	</outline>
</glyph>
<glyph name="epsilon" format="2">
	<unicode hex="03B5"/>
	<advance width="414"/>
	<outline>
		<contour>
			<point x="176" y="-12" type="curve" smooth="yes"/>
			<point x="254" y="-12"/>
			<point x="308" y="2"/>
			<point x="380" y="46" type="curve"/>
			<point x="340" y="114" type="line"/>
			<point x="290" y="86"/>
			<point x="252" y="74"/>
			<point x="208" y="74" type="curve" smooth="yes"/>
			<point x="158" y="74"/>
			<point x="126" y="94"/>
			<point x="126" y="130" type="curve" smooth="yes"/>
			<point x="126" y="182"/>
			<point x="182" y="216"/>
			<point x="328" y="221" type="curve"/>
			<point x="318" y="304" type="line"/>
			<point x="294" y="298"/>
			<point x="277" y="294"/>
			<point x="258" y="294" type="curve" smooth="yes"/>
			<point x="218" y="294"/>
			<point x="190" y="316"/>
			<point x="190" y="348" type="curve" smooth="yes"/>
			<point x="190" y="392"/>
			<point x="232" y="418"/>
			<point x="298" y="418" type="curve" smooth="yes"/>
			<point x="330" y="418"/>
			<point x="352" y="414"/>
			<point x="384" y="402" type="curve"/>
			<point x="412" y="480" type="line"/>
			<point x="372" y="494"/>
			<point x="332" y="504"/>
			<point x="284" y="504" type="curve" smooth="yes"/>
			<point x="174" y="504"/>
			<point x="80" y="450"/>
			<point x="80" y="356" type="curve" smooth="yes"/>
			<point x="80" y="310"/>
			<point x="112" y="276"/>
			<point x="150" y="262" type="curve"/>
			<point x="150" y="258" type="line"/>
			<point x="78" y="236"/>
			<point x="14" y="194"/>
			<point x="14" y="110" type="curve" smooth="yes"/>
			<point x="14" y="34"/>
			<point x="84" y="-12"/>
		</contour>
	</outline>
	<anchor name="aboveLC" x="289" y="514"/>
</glyph>
<glyph name="Icyr" format="1">
	<unicode hex="0418"/>
	<advance width="646"/>
	<outline>
		<contour>
			<point x="32" y="0" type="line"/>
			<point x="154" y="0" type="line"/>
			<point x="432" y="378" type="line"/>
			<point x="465" y="426"/>
			<point x="492" y="466"/>
			<point x="526" y="528" type="curve"/>
			<point x="530" y="528" type="line"/>
			<point x="508" y="454"/>
			<point x="484" y="374"/>
			<point x="469" y="299" type="curve" smooth="yes"/>
			<point x="410" y="0" type="line"/>
			<point x="513" y="0" type="line"/>
			<point x="644" y="654" type="line"/>
			<point x="522" y="654" type="line"/>
			<point x="244" y="276" type="line"/>
			<point x="212" y="229"/>
			<point x="186" y="189"/>
			<point x="152" y="130" type="curve"/>
			<point x="148" y="130" type="line"/>
			<point x="167" y="199"/>
			<point x="191" y="282"/>
			<point x="206" y="355" type="curve" smooth="yes"/>
			<point x="266" y="654" type="line"/>
			<point x="162" y="654" type="line"/>
		</contour>
		<contour>
			<point name="aboveUC" x="404" y="674" type="move"/>
		</contour>
	</outline>
</glyph>
<glyph name="ve" format="2">
	<unicode hex="0432"/>
	<advance width="485"/>
	<outline>
		<contour>
			<point x="218" y="-12" type="curve" smooth="yes"/>
			<point x="345" y="-12"/>
			<point x="443" y="58"/>
			<point x="443" y="158" type="curve" smooth="yes"/>
			<point x="443" y="207"/>
			<point x="412" y="245"/>
			<point x="360" y="254" type="curve"/>
			<point x="360" y="258" type="line"/>
			<point x="420" y="277"/>
			<point x="459" y="328"/>
			<point x="459" y="389" type="curve" smooth="yes"/>
			<point x="459" y="460"/>
			<point x="405" y="503"/>
			<point x="318" y="503" type="curve" smooth="yes"/>
			<point x="172" y="503"/>
			<point x="34" y="372"/>
			<point x="34" y="150" type="curve" smooth="yes"/>
			<point x="34" y="52"/>
			<point x="102" y="-12"/>
		</contour>
		<contour>
			<point x="235" y="72" type="curve" smooth="yes"/>
			<point x="179" y="72"/>
			<point x="136" y="102"/>
			<point x="136" y="159" type="curve" smooth="yes"/>
			<point x="136" y="320"/>
			<point x="210" y="418"/>
			<point x="290" y="418" type="curve" smooth="yes"/>
			<point x="332" y="418"/>
			<point x="352" y="399"/>
			<point x="352" y="363" type="curve" smooth="yes"/>
			<point x="352" y="326"/>
			<point x="318" y="294"/>
			<point x="246" y="294" type="curve" smooth="yes"/>
			<point x="129" y="294" type="line"/>
			<point x="115" y="216" type="line"/>
			<point x="246" y="216" type="line" smooth="yes"/>
			<point x="308" y="216"/>
			<point x="340" y="197"/>
			<point x="340" y="154" type="curve" smooth="yes"/>
			<point x="340" y="108"/>
			<point x="297" y="72"/>
		</contour>
	</outline>
</glyph>
<glyph name="ze" format="1">
	<unicode hex="0437"/>
	<advance width="430"/>
	<outline>
		<contour>
			<point x="169" y="-12" type="curve" smooth="yes"/>
			<point x="281" y="-12"/>
			<point x="388" y="47"/>
			<point x="388" y="150" type="curve" smooth="yes"/>
			<point x="388" y="202"/>
			<point x="355" y="238"/>
			<point x="306" y="253" type="curve"/>
			<point x="306" y="257" type="line"/>
			<point x="364" y="276"/>
			<point x="404" y="325"/>
			<point x="404" y="382" type="curve" smooth="yes"/>
			<point x="404" y="462"/>
			<point x="336" y="503"/>
			<point x="254" y="503" type="curve" smooth="yes"/>
			<point x="187" y="503"/>
			<point x="131" y="488"/>
			<point x="74" y="456" type="curve"/>
			<point x="110" y="384" type="line"/>
			<point x="151" y="408"/>
			<point x="188" y="418"/>
			<point x="229" y="418" type="curve" smooth="yes"/>
			<point x="266" y="418"/>
			<point x="297" y="400"/>
			<point x="297" y="360" type="curve" smooth="yes"/>
			<point x="297" y="323"/>
			<point x="261" y="296"/>
			<point x="192" y="296" type="curve" smooth="yes"/>
			<point x="144" y="296" type="line"/>
			<point x="126" y="214" type="line"/>
			<point x="192" y="214" type="line" smooth="yes"/>
			<point x="251" y="214"/>
			<point x="285" y="195"/>
			<point x="285" y="155" type="curve" smooth="yes"/>
			<point x="285" y="105"/>
			<point x="231" y="72"/>
			<point x="171" y="72" type="curve" smooth="yes"/>
			<point x="128" y="72"/>
			<point x="80" y="85"/>
			<point x="38" y="123" type="curve"/>
			<point x="-9" y="60" type="line"/>
			<point x="38" y="9"/>
			<point x="111" y="-12"/>
		</contour>
	</outline>
</glyph>
<glyph name="em" format="1">
	<unicode hex="043C"/>
	<advance width="661"/>
	<outline>
		<contour>
			<point x="20" y="-10" type="curve" smooth="yes"/>
			<point x="93" y="-10"/>
			<point x="140" y="44"/>
			<point x="164" y="147" type="curve" smooth="yes"/>
			<point x="186" y="240"/>
			<point x="192" y="304"/>
			<point x="202" y="398" type="curve"/>
			<point x="206" y="398" type="line"/>
			<point x="214" y="346"/>
			<point x="220" y="293"/>
			<point x="228" y="242" type="curve"/>
			<point x="262" y="44" type="line"/>
			<point x="336" y="44" type="line"/>
			<point x="450" y="248" type="line"/>
			<point x="475" y="294"/>
			<point x="500" y="350"/>
			<point x="525" y="398" type="curve"/>
			<point x="529" y="398" type="line"/>
			<point x="512" y="338"/>
			<point x="484" y="234"/>
			<point x="474" y="184" type="curve" smooth="yes"/>
			<point x="436" y="0" type="line"/>
			<point x="538" y="0" type="line"/>
			<point x="636" y="491" type="line"/>
			<point x="500" y="491" type="line"/>
			<point x="384" y="292" type="line" smooth="yes"/>
			<point x="362" y="254"/>
			<point x="342" y="212"/>
			<point x="324" y="170" type="curve"/>
			<point x="320" y="170" type="line"/>
			<point x="316" y="211"/>
			<point x="310" y="254"/>
			<point x="304" y="292" type="curve" smooth="yes"/>
			<point x="270" y="491" type="line"/>
			<point x="134" y="491" type="line"/>
			<point x="116" y="385"/>
			<point x="99" y="284"/>
			<point x="74" y="179" type="curve" smooth="yes"/>
			<point x="60" y="116"/>
			<point x="45" y="93"/>
			<point x="21" y="93" type="curve" smooth="yes"/>
			<point x="13" y="93"/>
			<point x="7" y="95"/>
			<point x="0" y="97" type="curve"/>
			<point x="-28" y="-1" type="line"/>
			<point x="-15" y="-7"/>
			<point x="3" y="-10"/>
		</contour>
	</outline>
</glyph>
<glyph name="ecyr" format="1">
	<unicode hex="044D"/>
	<advance width="453"/>
	<outline>
		<contour>
			<point x="146" y="-12" type="curve" smooth="yes"/>
			<point x="298" y="-12"/>
			<point x="417" y="110"/>
			<point x="417" y="301" type="curve" smooth="yes"/>
			<point x="417" y="427"/>
			<point x="341" y="502"/>
			<point x="241" y="502" type="curve" smooth="yes"/>
			<point x="171" y="502"/>
			<point x="116" y="476"/>
			<point x="71" y="443" type="curve"/>
			<point x="109" y="380" type="line"/>
			<point x="146" y="406"/>
			<point x="176" y="420"/>
			<point x="215" y="420" type="curve" smooth="yes"/>
			<point x="270" y="420"/>
			<point x="311" y="372"/>
			<point x="311" y="289" type="curve" smooth="yes"/>
			<point x="311" y="155"/>
			<point x="244" y="70"/>
			<point x="150" y="70" type="curve" smooth="yes"/>
			<point x="104" y="70"/>
			<point x="65" y="92"/>
			<point x="41" y="118" type="curve"/>
			<point x="-10" y="57" type="line"/>
			<point x="22" y="20"/>
			<point x="78" y="-12"/>
		</contour>
		<contour>
			<point x="115" y="214" type="line"/>
			<point x="359" y="214" type="line"/>
			<point x="376" y="294" type="line"/>
			<point x="132" y="294" type="line"/>
		</contour>
		<contour>
			<point name="aboveLC" x="246" y="514" type="move"/>
		</contour>
	</outline>
</glyph>
<glyph name="ya" format="1">
	<unicode hex="044F"/>
	<advance width="499"/>
	<outline>
		<contour>
			<point x="270" y="0" type="line"/>
			<point x="376" y="0" type="line"/>
			<point x="475" y="491" type="line"/>
			<point x="291" y="491" type="line" smooth="yes"/>
			<point x="166" y="491"/>
			<point x="70" y="441"/>
			<point x="70" y="310" type="curve" smooth="yes"/>
			<point x="70" y="220"/>
			<point x="154" y="178"/>
			<point x="240" y="178" type="curve" smooth="yes"/>
			<point x="306" y="178" type="line"/>
		</contour>
		<contour>
			<point x="265" y="256" type="line" smooth="yes"/>
			<point x="208" y="256"/>
			<point x="174" y="279"/>
			<point x="174" y="318" type="curve" smooth="yes"/>
			<point x="174" y="378"/>
			<point x="212" y="408"/>
			<point x="290" y="408" type="curve" smooth="yes"/>
			<point x="353" y="408" type="line"/>
			<point x="320" y="256" type="line"/>
		</contour>
		<contour>
			<point x="179" y="256" type="line"/>
			<point x="104" y="156" type="line" smooth="yes"/>
			<point x="66" y="106"/>
			<point x="54" y="93"/>
			<point x="31" y="93" type="curve" smooth="yes"/>
			<point x="25" y="93"/>
			<point x="21" y="94"/>
			<point x="12" y="96" type="curve"/>
			<point x="-16" y="-2" type="line"/>
			<point x="-5" y="-7"/>
			<point x="13" y="-10"/>
			<point x="25" y="-10" type="curve" smooth="yes"/>
			<point x="79" y="-10"/>
			<point x="110" y="15"/>
			<point x="166" y="92" type="curve" smooth="yes"/>
			<point x="270" y="236" type="line"/>
		</contour>
		<contour>
			<point name="aboveLC" x="285" y="512" type="move"/>
		</contour>
	</outline>
</glyph>
<glyph name="dje" format="1">
	<unicode hex="0452"/>
	<advance width="544"/>
	<outline>
		<contour>
			<point x="218" y="-206" type="curve" smooth="yes"/>
			<point x="382" y="-206"/>
			<point x="490" y="103"/>
			<point x="491" y="316" type="curve" smooth="yes"/>
			<point x="491" y="411"/>
			<point x="464" y="483"/>
			<point x="371" y="483" type="curve" smooth="yes"/>
			<point x="312" y="483"/>
			<point x="259" y="450"/>
			<point x="209" y="407" type="curve"/>
			<point x="205" y="407" type="line"/>
			<point x="224" y="478" type="line"/>
			<point x="271" y="706" type="line"/>
			<point x="164" y="706" type="line"/>
			<point x="22" y="0" type="line"/>
			<point x="130" y="0" type="line"/>
			<point x="192" y="315" type="line"/>
			<point x="244" y="368"/>
			<point x="282" y="391"/>
			<point x="316" y="391" type="curve" smooth="yes"/>
			<point x="365" y="391"/>
			<point x="380" y="355"/>
			<point x="380" y="279" type="curve" smooth="yes"/>
			<point x="380" y="121"/>
			<point x="289" y="-120"/>
			<point x="209" y="-120" type="curve" smooth="yes"/>
			<point x="194" y="-120"/>
			<point x="179" y="-116"/>
			<point x="165" y="-108" type="curve"/>
			<point x="132" y="-186" type="line"/>
			<point x="152" y="-197"/>
			<point x="181" y="-206"/>
		</contour>
		<contour>
			<point x="64" y="554" type="line"/>
			<point x="408" y="554" type="line"/>
			<point x="424" y="634" type="line"/>
			<point x="152" y="634" type="line"/>
			<point x="78" y="628" type="line"/>
		</contour>
	</outline>
</glyph>
<glyph name="ieukran" format="2">
	<unicode hex="0454"/>
	<advance width="440"/>
	<outline>
		<contour>
			<point x="220" y="-12" type="curve" smooth="yes"/>
			<point x="296" y="-12"/>
			<point x="346" y="19"/>
			<point x="382" y="46" type="curve"/>
			<point x="336" y="110" type="line"/>
			<point x="312" y="92"/>
			<point x="282" y="74"/>
			<point x="243" y="74" type="curve" smooth="yes"/>
			<point x="174" y="74"/>
			<point x="138" y="118"/>
			<point x="138" y="192" type="curve" smooth="yes"/>
			<point x="138" y="316"/>
			<point x="214" y="418"/>
			<point x="308" y="418" type="curve" smooth="yes"/>
			<point x="342" y="418"/>
			<point x="363" y="406"/>
			<point x="384" y="382" type="curve"/>
			<point x="444" y="442" type="line"/>
			<point x="418" y="474"/>
			<point x="376" y="504"/>
			<point x="314" y="504" type="curve" smooth="yes"/>
			<point x="164" y="504"/>
			<point x="34" y="364"/>
			<point x="34" y="188" type="curve" smooth="yes"/>
			<point x="34" y="62"/>
			<point x="114" y="-12"/>
		</contour>
		<contour>
			<point x="96" y="214" type="line"/>
			<point x="330" y="214" type="line"/>
			<point x="346" y="294" type="line"/>
			<point x="112" y="294" type="line"/>
		</contour>
	</outline>
	<anchor name="aboveLC" x="286" y="514"/>
</glyph>
<glyph name="Yat" format="1">
	<unicode hex="0462"/>
	<advance width="601"/>
	<outline>
		<contour>
			<point x="102" y="0" type="line"/>
			<point x="278" y="0" type="line" smooth="yes"/>
			<point x="428" y="0"/>
			<point x="551" y="69"/>
			<point x="551" y="224" type="curve" smooth="yes"/>
			<point x="551" y="321"/>
			<point x="479" y="382"/>
			<point x="350" y="382" type="curve" smooth="yes"/>
			<point x="287" y="382" type="line"/>
			<point x="350" y="699" type="line"/>
			<point x="242" y="699" type="line"/>
		</contour>
		<contour>
			<point x="226" y="84" type="line"/>
			<point x="271" y="306" type="line"/>
			<point x="326" y="306" type="line" smooth="yes"/>
			<point x="407" y="306"/>
			<point x="444" y="274"/>
			<point x="444" y="210" type="curve" smooth="yes"/>
			<point x="444" y="130"/>
			<point x="380" y="84"/>
			<point x="281" y="84" type="curve" smooth="yes"/>
		</contour>
		<contour>
			<point x="78" y="496" type="line"/>
			<point x="524" y="496" type="line"/>
			<point x="542" y="588" type="line"/>
			<point x="96" y="588" type="line"/>
		</contour>
	</outline>
</glyph>
<glyph name="Ghestroke" format="1">
	<unicode hex="0492"/>
	<advance width="490"/>
	<outline>
		<contour>
			<point x="20" y="286" type="line"/>
			<point x="348" y="286" type="line"/>
			<point x="366" y="368" type="line"/>
			<point x="114" y="368" type="line"/>
			<point x="36" y="363" type="line"/>
		</contour>
		<component base="Gamma" xOffset="6"/>
	</outline>
</glyph>
<glyph name="ghestroke" format="1">
	<unicode hex="0493"/>
	<advance width="402"/>
	<outline>
		<contour>
			<point x="164" y="-12" type="curve" smooth="yes"/>
			<point x="240" y="-12"/>
			<point x="308" y="17"/>
			<point x="356" y="49" type="curve"/>
			<point x="318" y="117" type="line"/>
			<point x="274" y="88"/>
			<point x="222" y="69"/>
			<point x="176" y="69" type="curve" smooth="yes"/>
			<point x="137" y="69"/>
			<point x="114" y="90"/>
			<point x="114" y="119" type="curve" smooth="yes"/>
			<point x="114" y="220"/>
			<point x="391" y="252"/>
			<point x="391" y="390" type="curve" smooth="yes"/>
			<point x="391" y="458"/>
			<point x="339" y="503"/>
			<point x="248" y="503" type="curve" smooth="yes"/>
			<point x="184" y="503"/>
			<point x="122" y="480"/>
			<point x="74" y="440" type="curve"/>
			<point x="118" y="378" type="line"/>
			<point x="155" y="405"/>
			<point x="198" y="421"/>
			<point x="237" y="421" type="curve" smooth="yes"/>
			<point x="273" y="421"/>
			<point x="291" y="402"/>
			<point x="291" y="376" type="curve" smooth="yes"/>
			<point x="291" y="284"/>
			<point x="14" y="256"/>
			<point x="14" y="108" type="curve" smooth="yes"/>
			<point x="14" y="37"/>
			<point x="66" y="-12"/>
		</contour>
		<contour>
			<point x="-6" y="224" type="line"/>
			<point x="402" y="224" type="line"/>
			<point x="420" y="304" type="line"/>
			<point x="82" y="304" type="line"/>
			<point x="8" y="298" type="line"/>
		</contour>
	</outline>
</glyph>
<glyph name="ustraight" format="2">
	<unicode hex="04AF"/>
	<advance width="476"/>
	<outline>
		<contour>
			<point x="96" y="-193" type="line"/>
			<point x="206" y="-193" type="line"/>
			<point x="243" y="0" type="line"/>
			<point x="510" y="492" type="line"/>
			<point x="402" y="492" type="line"/>
			<point x="281" y="256" type="line"/>
			<point x="258" y="207"/>
			<point x="233" y="150"/>
			<point x="211" y="101" type="curve"/>
			<point x="207" y="101" type="line"/>
			<point x="204" y="151"/>
			<point x="201" y="208"/>
			<point x="196" y="256" type="curve" smooth="yes"/>
			<point x="169" y="492" type="line"/>
			<point x="59" y="492" type="line"/>
			<point x="137" y="0" type="line"/>
		</contour>
	</outline>
	<anchor name="aboveLC" x="281" y="514"/>
</glyph>
<glyph name="Ustraightstroke" format="1">
	<unicode hex="04B0"/>
	<advance width="486"/>
	<outline>
		<contour>
			<point x="50" y="220" type="line"/>
			<point x="424" y="220" type="line"/>
			<point x="442" y="302" type="line"/>
			<point x="146" y="302" type="line"/>
			<point x="66" y="296" type="line"/>
		</contour>
		<component base="Ustraight"/>
		<contour>
			<point name="aboveUC" x="326" y="676" type="move"/>
		</contour>
	</outline>
</glyph>
<glyph name="ustraightstroke" format="1">
	<unicode hex="04B1"/>
	<advance width="474"/>
	<outline>
		<contour>
			<point x="0" y="0" type="line"/>
			<point x="374" y="0" type="line"/>
			<point x="390" y="80" type="line"/>
			<point x="112" y="80" type="line"/>
			<point x="16" y="74" type="line"/>
		</contour>
		<component base="ustraight"/>
		<contour>
			<point name="aboveLC" x="280" y="514" type="move"/>
		</contour>
	</outline>
</glyph>
<glyph name="e.sups" format="1">
	<unicode hex="1D49"/>
	<advance width="328"/>
	<outline>
		<contour>
			<point x="217" y="377" type="curve" smooth="yes"/>
			<point x="259" y="377"/>
			<point x="294" y="390"/>
			<point x="325" y="410" type="curve"/>
			<point x="303" y="456" type="line"/>
			<point x="284" y="445"/>
			<point x="260" y="436"/>
			<point x="233" y="436" type="curve" smooth="yes"/>
			<point x="184" y="436"/>
			<point x="151" y="468"/>
			<point x="156" y="524" type="curve"/>
			<point x="354" y="524" type="line"/>
			<point x="360" y="537"/>
			<point x="369" y="567"/>
			<point x="369" y="597" type="curve" smooth="yes"/>
			<point x="369" y="660"/>
			<point x="343" y="718"/>
			<point x="263" y="718" type="curve" smooth="yes"/>
			<point x="176" y="718"/>
			<point x="82" y="636"/>
			<point x="82" y="516" type="curve" smooth="yes"/>
			<point x="82" y="428"/>
			<point x="136" y="377"/>
		</contour>
		<contour>
			<point x="164" y="580" type="line"/>
			<point x="180" y="628"/>
			<point x="218" y="658"/>
			<point x="254" y="658" type="curve" smooth="yes"/>
			<point x="291" y="658"/>
			<point x="305" y="631"/>
			<point x="305" y="601" type="curve" smooth="yes"/>
			<point x="305" y="592"/>
			<point x="304" y="588"/>
			<point x="302" y="580" type="curve"/>
		</contour>
	</outline>
</glyph>
<glyph name="upsilonstroke" format="2">
	<unicode hex="1D7F"/>
	<advance width="525"/>
	<outline>
		<contour>
			<point x="-12" y="214" type="line"/>
			<point x="526" y="214" type="line"/>
			<point x="542" y="294" type="line"/>
			<point x="94" y="294" type="line"/>
			<point x="2" y="288" type="line"/>
		</contour>
		<component base="upsilonlatin"/>
	</outline>
	<anchor name="aboveLC" x="318" y="514"/>
	<anchor name="belowLC" x="216" y="-22"/>
</glyph>
<glyph name="schwa.sups" format="1">
	<unicode hex="2094"/>
	<advance width="326"/>
	<outline>
		<contour>
			<point x="188" y="377" type="curve" smooth="yes"/>
			<point x="272" y="377"/>
			<point x="367" y="459"/>
			<point x="367" y="580" type="curve" smooth="yes"/>
			<point x="367" y="671"/>
			<point x="317" y="718"/>
			<point x="244" y="718" type="curve" smooth="yes"/>
			<point x="207" y="718"/>
			<point x="168" y="706"/>
			<point x="134" y="687" type="curve"/>
			<point x="156" y="640" type="line"/>
			<point x="182" y="654"/>
			<point x="200" y="660"/>
			<point x="224" y="660" type="curve" smooth="yes"/>
			<point x="268" y="660"/>
			<point x="294" y="636"/>
			<point x="293" y="576" type="curve"/>
			<point x="96" y="576" type="line"/>
			<point x="90" y="562"/>
			<point x="80" y="527"/>
			<point x="80" y="498" type="curve" smooth="yes"/>
			<point x="80" y="433"/>
			<point x="109" y="377"/>
		</contour>
		<contour>
			<point x="286" y="520" type="line"/>
			<point x="270" y="466"/>
			<point x="232" y="437"/>
			<point x="196" y="437" type="curve" smooth="yes"/>
			<point x="157" y="437"/>
			<point x="144" y="462"/>
			<point x="144" y="493" type="curve" smooth="yes"/>
			<point x="144" y="503"/>
			<point x="144" y="510"/>
			<point x="147" y="520" type="curve"/>
		</contour>
	</outline>
</glyph>
<glyph name="colonmonetary" format="1">
	<unicode hex="20A1"/>
	<advance width="494"/>
	<outline>
		<contour>
			<point x="280" y="-12" type="curve" smooth="yes"/>
			<point x="342" y="-12"/>
			<point x="398" y="12"/>
			<point x="450" y="61" type="curve"/>
			<point x="408" y="125" type="line"/>
			<point x="376" y="93"/>
			<point x="336" y="75"/>
			<point x="293" y="75" type="curve" smooth="yes"/>
			<point x="208" y="75"/>
			<point x="164" y="138"/>
			<point x="164" y="241" type="curve" smooth="yes"/>
			<point x="164" y="423"/>
			<point x="250" y="561"/>
			<point x="370" y="561" type="curve" smooth="yes"/>
			<point x="419" y="561"/>
			<point x="453" y="533"/>
			<point x="469" y="501" type="curve"/>
			<point x="534" y="552" type="line"/>
			<point x="509" y="606"/>
			<point x="451" y="648"/>
			<point x="376" y="648" type="curve" smooth="yes"/>
			<point x="210" y="648"/>
			<point x="60" y="484"/>
			<point x="60" y="234" type="curve" smooth="yes"/>
			<point x="60" y="80"/>
			<point x="148" y="-12"/>
		</contour>
		<contour>
			<point x="94" y="-104" type="line"/>
			<point x="142" y="-114" type="line"/>
			<point x="414" y="746" type="line"/>
			<point x="366" y="756" type="line"/>
		</contour>
		<contour>
			<point x="192" y="-104" type="line"/>
			<point x="240" y="-114" type="line"/>
			<point x="512" y="746" type="line"/>
			<point x="464" y="756" type="line"/>
		</contour>
	</outline>
</glyph>
<glyph name="lira" format="1">
	<unicode hex="20A4"/>
	<advance width="494"/>
	<outline>
		<contour>
			<point x="1" y="0" type="line"/>
			<point x="407" y="0" type="line"/>
			<point x="423" y="91" type="line"/>
			<point x="176" y="91" type="line"/>
			<point x="176" y="95" type="line"/>
			<point x="229" y="148"/>
			<point x="253" y="205"/>
			<point x="253" y="287" type="curve" smooth="yes"/>
			<point x="253" y="326"/>
			<point x="244" y="373"/>
			<point x="244" y="410" type="curve" smooth="yes"/>
			<point x="244" y="509"/>
			<point x="294" y="561"/>
			<point x="358" y="561" type="curve" smooth="yes"/>
			<point x="397" y="561"/>
			<point x="426" y="541"/>
			<point x="447" y="508" type="curve"/>
			<point x="510" y="564" type="line"/>
			<point x="480" y="614"/>
			<point x="428" y="648"/>
			<point x="364" y="648" type="curve" smooth="yes"/>
			<point x="239" y="648"/>
			<point x="144" y="560"/>
			<point x="144" y="422" type="curve" smooth="yes"/>
			<point x="144" y="377"/>
			<point x="155" y="318"/>
			<point x="155" y="274" type="curve" smooth="yes"/>
			<point x="155" y="183"/>
			<point x="104" y="107"/>
			<point x="14" y="65" type="curve"/>
		</contour>
		<contour>
			<point x="72" y="348" type="line"/>
			<point x="396" y="348" type="line"/>
			<point x="410" y="412" type="line"/>
			<point x="152" y="412" type="line"/>
			<point x="84" y="407" type="line"/>
		</contour>
		<contour>
			<point x="48" y="220" type="line"/>
			<point x="366" y="220" type="line"/>
			<point x="380" y="284" type="line"/>
			<point x="128" y="284" type="line"/>
			<point x="60" y="279" type="line"/>
		</contour>
	</outline>
</glyph>
<glyph name="naira" format="1">
	<unicode hex="20A6"/>
	<advance width="494"/>
	<outline>
		<contour>
			<point x="27" y="0" type="line"/>
			<point x="109" y="0" type="line"/>
			<point x="166" y="288" type="line"/>
			<point x="197" y="541" type="line"/>
			<point x="200" y="541" type="line"/>
			<point x="221" y="310" type="line"/>
			<point x="262" y="0" type="line"/>
			<point x="362" y="0" type="line"/>
			<point x="490" y="636" type="line"/>
			<point x="408" y="636" type="line"/>
			<point x="351" y="343" type="line"/>
			<point x="322" y="94" type="line"/>
			<point x="318" y="94" type="line"/>
			<point x="298" y="324" type="line"/>
			<point x="255" y="636" type="line"/>
			<point x="156" y="636" type="line"/>
		</contour>
		<contour>
			<point x="28" y="348" type="line"/>
			<point x="500" y="348" type="line"/>
			<point x="514" y="412" type="line"/>
			<point x="108" y="412" type="line"/>
			<point x="40" y="407" type="line"/>
		</contour>
		<contour>
			<point x="4" y="220" type="line"/>
			<point x="472" y="220" type="line"/>
			<point x="486" y="284" type="line"/>
			<point x="84" y="284" type="line"/>
			<point x="16" y="279" type="line"/>
		</contour>
	</outline>
</glyph>
<glyph name="won" format="1">
	<unicode hex="20A9"/>
	<advance width="491"/>
	<outline>
		<contour>
			<point x="37" y="0" type="line"/>
			<point x="144" y="0" type="line"/>
			<point x="249" y="345" type="line"/>
			<point x="298" y="519" type="line"/>
			<point x="302" y="519" type="line"/>
			<point x="281" y="345" type="line"/>
			<point x="252" y="0" type="line"/>
			<point x="362" y="0" type="line"/>
			<point x="560" y="636" type="line"/>
			<point x="472" y="636" type="line"/>
			<point x="356" y="217" type="line"/>
			<point x="321" y="81" type="line"/>
			<point x="317" y="81" type="line"/>
			<point x="330" y="217" type="line"/>
			<point x="361" y="596" type="line"/>
			<point x="274" y="596" type="line"/>
			<point x="155" y="217" type="line"/>
			<point x="117" y="81" type="line"/>
			<point x="113" y="81" type="line"/>
			<point x="132" y="217" type="line"/>
			<point x="183" y="636" type="line"/>
			<point x="87" y="636" type="line"/>
		</contour>
		<contour>
			<point x="-6" y="290" type="line"/>
			<point x="514" y="290" type="line"/>
			<point x="526" y="360" type="line"/>
			<point x="80" y="360" type="line"/>
			<point x="8" y="354" type="line"/>
		</contour>
	</outline>
</glyph>
<glyph name="dong" format="1">
	<unicode hex="20AB"/>
	<advance width="494"/>
	<outline>
		<contour>
			<point x="190" y="112" type="curve" smooth="yes"/>
			<point x="232" y="112"/>
			<point x="276" y="134"/>
			<point x="309" y="164" type="curve"/>
			<point x="311" y="164" type="line"/>
			<point x="309" y="122" type="line"/>
			<point x="384" y="122" type="line"/>
			<point x="490" y="648" type="line"/>
			<point x="401" y="648" type="line"/>
			<point x="372" y="507" type="line"/>
			<point x="358" y="423" type="line"/>
			<point x="338" y="450"/>
			<point x="316" y="467"/>
			<point x="272" y="467" type="curve" smooth="yes"/>
			<point x="172" y="467"/>
			<point x="71" y="380"/>
			<point x="71" y="244" type="curve" smooth="yes"/>
			<point x="71" y="163"/>
			<point x="115" y="112"/>
		</contour>
		<contour>
			<point x="223" y="186" type="curve" smooth="yes"/>
			<point x="184" y="186"/>
			<point x="164" y="213"/>
			<point x="164" y="259" type="curve" smooth="yes"/>
			<point x="164" y="340"/>
			<point x="218" y="394"/>
			<point x="278" y="394" type="curve" smooth="yes"/>
			<point x="304" y="394"/>
			<point x="325" y="381"/>
			<point x="342" y="355" type="curve"/>
			<point x="317" y="232" type="line"/>
			<point x="283" y="200"/>
			<point x="255" y="186"/>
		</contour>
		<contour>
			<point x="242" y="534" type="line"/>
			<point x="466" y="534" type="line"/>
			<point x="540" y="540" type="line"/>
			<point x="552" y="598" type="line"/>
			<point x="255" y="598" type="line"/>
		</contour>
		<contour>
			<point x="29" y="0" type="line"/>
			<point x="391" y="0" type="line"/>
			<point x="404" y="63" type="line"/>
			<point x="42" y="63" type="line"/>
		</contour>
	</outline>
</glyph>
<glyph name="Euro" format="2">
	<unicode hex="20AC"/>
	<advance width="494"/>
	<outline>
		<contour>
			<point x="288" y="-12" type="curve" smooth="yes"/>
			<point x="347" y="-12"/>
			<point x="402" y="14"/>
			<point x="452" y="61" type="curve"/>
			<point x="410" y="126" type="line"/>
			<point x="379" y="96"/>
			<point x="342" y="75"/>
			<point x="301" y="75" type="curve" smooth="yes"/>
			<point x="227" y="75"/>
			<point x="185" y="140"/>
			<point x="187" y="254" type="curve" smooth="yes"/>
			<point x="190" y="424"/>
			<point x="267" y="561"/>
			<point x="376" y="561" type="curve" smooth="yes"/>
			<point x="420" y="561"/>
			<point x="449" y="532"/>
			<point x="465" y="500" type="curve"/>
			<point x="531" y="552" type="line"/>
			<point x="506" y="604"/>
			<point x="454" y="648"/>
			<point x="383" y="648" type="curve" smooth="yes"/>
			<point x="224" y="648"/>
			<point x="83" y="484"/>
			<point x="80" y="247" type="curve" smooth="yes"/>
			<point x="78" y="80"/>
			<point x="163" y="-12"/>
		</contour>
		<contour>
			<point x="18" y="220" type="line"/>
			<point x="366" y="220" type="line"/>
			<point x="380" y="284" type="line"/>
			<point x="98" y="284" type="line"/>
			<point x="30" y="279" type="line"/>
		</contour>
		<contour>
			<point x="42" y="348" type="line"/>
			<point x="428" y="348" type="line"/>
			<point x="442" y="412" type="line"/>
			<point x="122" y="412" type="line"/>
			<point x="54" y="407" type="line"/>
		</contour>
	</outline>
</glyph>
<glyph name="tugrik" format="2">
	<unicode hex="20AE"/>
	<advance width="496"/>
	<outline>
		<contour>
			<point x="138" y="0" type="line"/>
			<point x="248" y="0" type="line"/>
			<point x="358" y="548" type="line"/>
			<point x="522" y="548" type="line"/>
			<point x="540" y="636" type="line"/>
			<point x="102" y="636" type="line"/>
			<point x="84" y="548" type="line"/>
			<point x="248" y="548" type="line"/>
		</contour>
		<contour>
			<point x="48" y="100" type="line"/>
			<point x="176" y="162" type="line"/>
			<point x="284" y="206" type="line"/>
			<point x="442" y="280" type="line"/>
			<point x="420" y="336" type="line"/>
			<point x="298" y="278" type="line"/>
			<point x="190" y="234" type="line"/>
			<point x="26" y="156" type="line"/>
		</contour>
		<contour>
			<point x="76" y="244" type="line"/>
			<point x="204" y="304" type="line"/>
			<point x="312" y="348" type="line"/>
			<point x="470" y="424" type="line"/>
			<point x="448" y="480" type="line"/>
			<point x="326" y="420" type="line"/>
			<point x="218" y="376" type="line"/>
			<point x="54" y="300" type="line"/>
		</contour>
	</outline>
</glyph>
<glyph name="peso" format="1">
	<unicode hex="20B1"/>
	<advance width="494"/>
	<outline>
		<contour>
			<point x="21" y="0" type="line"/>
			<point x="123" y="0" type="line"/>
			<point x="168" y="219" type="line"/>
			<point x="204" y="219" type="line" smooth="yes"/>
			<point x="343" y="219"/>
			<point x="466" y="299"/>
			<point x="466" y="475" type="curve" smooth="yes"/>
			<point x="466" y="590"/>
			<point x="391" y="636"/>
			<point x="287" y="636" type="curve" smooth="yes"/>
			<point x="149" y="636" type="line"/>
		</contour>
		<contour>
			<point x="182" y="290" type="line"/>
			<point x="237" y="566" type="line"/>
			<point x="264" y="566" type="line" smooth="yes"/>
			<point x="331" y="566"/>
			<point x="366" y="537"/>
			<point x="366" y="465" type="curve" smooth="yes"/>
			<point x="366" y="354"/>
			<point x="307" y="290"/>
			<point x="210" y="290" type="curve" smooth="yes"/>
		</contour>
		<contour>
			<point x="24" y="336" type="line"/>
			<point x="496" y="336" type="line"/>
			<point x="510" y="400" type="line"/>
			<point x="104" y="400" type="line"/>
			<point x="36" y="395" type="line"/>
		</contour>
		<contour>
			<point x="48" y="460" type="line"/>
			<point x="524" y="460" type="line"/>
			<point x="538" y="524" type="line"/>
			<point x="128" y="524" type="line"/>
			<point x="60" y="519" type="line"/>
		</contour>
	</outline>
</glyph>
<glyph name="hryvnia" format="1">
	<unicode hex="20B4"/>
	<advance width="491"/>
	<outline>
		<contour>
			<point x="219" y="-12" type="curve" smooth="yes"/>
			<point x="278" y="-12"/>
			<point x="355" y="18"/>
			<point x="412" y="68" type="curve"/>
			<point x="374" y="132" type="line"/>
			<point x="327" y="96"/>
			<point x="281" y="72"/>
			<point x="233" y="72" type="curve" smooth="yes"/>
			<point x="184" y="72"/>
			<point x="158" y="98"/>
			<point x="158" y="137" type="curve" smooth="yes"/>
			<point x="158" y="300"/>
			<point x="459" y="306"/>
			<point x="459" y="518" type="curve" smooth="yes"/>
			<point x="459" y="598"/>
			<point x="402" y="648"/>
			<point x="310" y="648" type="curve" smooth="yes"/>
			<point x="237" y="648"/>
			<point x="184" y="616"/>
			<point x="135" y="577" type="curve"/>
			<point x="177" y="512" type="line"/>
			<point x="216" y="546"/>
			<point x="250" y="565"/>
			<point x="293" y="565" type="curve" smooth="yes"/>
			<point x="333" y="565"/>
			<point x="355" y="541"/>
			<point x="355" y="506" type="curve" smooth="yes"/>
			<point x="355" y="357"/>
			<point x="56" y="356"/>
			<point x="56" y="125" type="curve" smooth="yes"/>
			<point x="56" y="40"/>
			<point x="116" y="-12"/>
		</contour>
		<contour>
			<point x="18" y="220" type="line"/>
			<point x="462" y="220" type="line"/>
			<point x="476" y="284" type="line"/>
			<point x="98" y="284" type="line"/>
			<point x="30" y="278" type="line"/>
		</contour>
		<contour>
			<point x="42" y="348" type="line"/>
			<point x="490" y="348" type="line"/>
			<point x="504" y="412" type="line"/>
			<point x="122" y="412" type="line"/>
			<point x="54" y="406" type="line"/>
		</contour>
	</outline>
</glyph>
<glyph name="tenge" format="2">
	<unicode hex="20B8"/>
	<advance width="496"/>
	<outline>
		<contour>
			<point x="140" y="0" type="line"/>
			<point x="248" y="0" type="line"/>
			<point x="336" y="444" type="line"/>
			<point x="502" y="444" type="line"/>
			<point x="516" y="508" type="line"/>
			<point x="150" y="508" type="line"/>
			<point x="76" y="502" type="line"/>
			<point x="62" y="444" type="line"/>
			<point x="228" y="444" type="line"/>
		</contour>
		<contour>
			<point x="88" y="572" type="line"/>
			<point x="526" y="572" type="line"/>
			<point x="540" y="636" type="line"/>
			<point x="102" y="636" type="line"/>
		</contour>
	</outline>
</glyph>
<glyph name="rupeeindian" format="2">
	<unicode hex="20B9"/>
	<advance width="496"/>
	<outline>
		<contour>
			<point x="70" y="234" type="line"/>
			<point x="140" y="234" type="line" smooth="yes"/>
			<point x="284" y="234"/>
			<point x="424" y="314"/>
			<point x="424" y="480" type="curve" smooth="yes"/>
			<point x="424" y="522"/>
			<point x="410" y="556"/>
			<point x="386" y="576" type="curve"/>
			<point x="510" y="576" type="line"/>
			<point x="524" y="642" type="line"/>
			<point x="152" y="642" type="line"/>
			<point x="134" y="552" type="line"/>
			<point x="198" y="552" type="line" smooth="yes"/>
			<point x="271" y="552"/>
			<point x="316" y="532"/>
			<point x="316" y="470" type="curve" smooth="yes"/>
			<point x="316" y="375"/>
			<point x="244" y="322"/>
			<point x="140" y="322" type="curve" smooth="yes"/>
			<point x="88" y="322" type="line"/>
		</contour>
		<contour>
			<point x="108" y="424" type="line"/>
			<point x="480" y="424" type="line"/>
			<point x="494" y="488" type="line"/>
			<point x="190" y="488" type="line"/>
			<point x="120" y="482" type="line"/>
		</contour>
		<contour>
			<point x="258" y="0" type="line"/>
			<point x="372" y="0" type="line"/>
			<point x="250" y="310" type="line"/>
			<point x="164" y="256" type="line"/>
		</contour>
	</outline>
</glyph>
<glyph name="liraturkish" format="1">
	<unicode hex="20BA"/>
	<advance width="494"/>
	<outline>
		<contour>
			<point x="208" y="88" type="curve"/>
			<point x="318" y="637" type="line"/>
			<point x="211" y="637" type="line"/>
			<point x="80" y="-12" type="line"/>
			<point x="301" y="-14"/>
			<point x="499" y="69"/>
			<point x="497" y="299" type="curve"/>
			<point x="404" y="277" type="line"/>
			<point x="401" y="164"/>
			<point x="315" y="96"/>
		</contour>
		<contour>
			<point x="78" y="337" type="line"/>
			<point x="164" y="379" type="line"/>
			<point x="270" y="424" type="line"/>
			<point x="460" y="517" type="line"/>
			<point x="438" y="574" type="line"/>
			<point x="283" y="496" type="line"/>
			<point x="177" y="452" type="line"/>
			<point x="56" y="394" type="line"/>
		</contour>
		<contour>
			<point x="51" y="194" type="line"/>
			<point x="136" y="236" type="line"/>
			<point x="243" y="281" type="line"/>
			<point x="433" y="374" type="line"/>
			<point x="410" y="431" type="line"/>
			<point x="256" y="354" type="line"/>
			<point x="149" y="309" type="line"/>
			<point x="28" y="251" type="line"/>
		</contour>
	</outline>
</glyph>
<glyph name="ruble" format="1">
	<unicode hex="20BD"/>
	<advance width="506"/>
	<outline>
		<contour>
			<point x="51" y="0" type="line"/>
			<point x="153" y="0" type="line"/>
			<point x="208" y="276" type="line"/>
			<point x="242" y="276" type="line" smooth="yes"/>
			<point x="400" y="276"/>
			<point x="505" y="359"/>
			<point x="505" y="493" type="curve" smooth="yes"/>
			<point x="505" y="591"/>
			<point x="425" y="636"/>
			<point x="314" y="636" type="curve" smooth="yes"/>
			<point x="179" y="636" type="line"/>
		</contour>
		<contour>
			<point x="222" y="340" type="line"/>
			<point x="266" y="562" type="line"/>
			<point x="292" y="562" type="line" smooth="yes"/>
			<point x="361" y="562"/>
			<point x="398" y="538"/>
			<point x="398" y="478" type="curve" smooth="yes"/>
			<point x="398" y="392"/>
			<point x="339" y="340"/>
			<point x="250" y="340" type="curve" smooth="yes"/>
		</contour>
		<contour>
			<point x="8" y="148" type="line"/>
			<point x="380" y="148" type="line"/>
			<point x="394" y="212" type="line"/>
			<point x="100" y="212" type="line"/>
			<point x="20" y="206" type="line"/>
		</contour>
		<contour>
			<point x="32" y="276" type="line"/>
			<point x="150" y="276" type="line"/>
			<point x="164" y="340" type="line"/>
			<point x="124" y="340" type="line"/>
			<point x="46" y="334" type="line"/>
		</contour>
	</outline>
</glyph>
<glyph name="numero" format="1">
	<unicode hex="2116"/>
	<advance width="888"/>
	<outline>
		<contour>
			<point x="44" y="-12" type="curve" smooth="yes"/>
			<point x="105" y="-12"/>
			<point x="142" y="20"/>
			<point x="158" y="100" type="curve" smooth="yes"/>
			<point x="184" y="234" type="line" smooth="yes"/>
			<point x="200" y="318"/>
			<point x="212" y="394"/>
			<point x="220" y="518" type="curve"/>
			<point x="224" y="518" type="line"/>
			<point x="232" y="456"/>
			<point x="238" y="412"/>
			<point x="246" y="371" type="curve" smooth="yes"/>
			<point x="320" y="0" type="line"/>
			<point x="442" y="0" type="line"/>
			<point x="545" y="519" type="line" smooth="yes"/>
			<point x="552" y="552"/>
			<point x="564" y="562"/>
			<point x="590" y="562" type="curve"/>
			<point x="598" y="644" type="line"/>
			<point x="588" y="647"/>
			<point x="584" y="648"/>
			<point x="563" y="648" type="curve" smooth="yes"/>
			<point x="502" y="648"/>
			<point x="465" y="616"/>
			<point x="449" y="536" type="curve" smooth="yes"/>
			<point x="423" y="402" type="line" smooth="yes"/>
			<point x="407" y="318"/>
			<point x="395" y="242"/>
			<point x="387" y="118" type="curve"/>
			<point x="383" y="118" type="line"/>
			<point x="375" y="180"/>
			<point x="369" y="224"/>
			<point x="361" y="265" type="curve" smooth="yes"/>
			<point x="287" y="636" type="line"/>
			<point x="165" y="636" type="line"/>
			<point x="61" y="117" type="line" smooth="yes"/>
			<point x="54" y="83"/>
			<point x="42" y="75"/>
			<point x="17" y="75" type="curve"/>
			<point x="9" y="-8" type="line"/>
			<point x="19" y="-11"/>
			<point x="23" y="-12"/>
		</contour>
		<contour>
			<point x="728" y="277" type="curve" smooth="yes"/>
			<point x="820" y="277"/>
			<point x="913" y="351"/>
			<point x="913" y="468" type="curve" smooth="yes"/>
			<point x="913" y="550"/>
			<point x="861" y="597"/>
			<point x="792" y="597" type="curve" smooth="yes"/>
			<point x="699" y="597"/>
			<point x="605" y="524"/>
			<point x="605" y="405" type="curve" smooth="yes"/>
			<point x="605" y="324"/>
			<point x="658" y="277"/>
		</contour>
		<contour>
			<point x="740" y="339" type="curve" smooth="yes"/>
			<point x="703" y="339"/>
			<point x="684" y="367"/>
			<point x="684" y="408" type="curve" smooth="yes"/>
			<point x="684" y="465"/>
			<point x="715" y="535"/>
			<point x="779" y="535" type="curve" smooth="yes"/>
			<point x="816" y="535"/>
			<point x="835" y="507"/>
			<point x="835" y="465" type="curve" smooth="yes"/>
			<point x="835" y="407"/>
			<point x="803" y="339"/>
		</contour>
		<contour>
			<point x="576" y="138" type="line"/>
			<point x="822" y="138" type="line"/>
			<point x="836" y="206" type="line"/>
			<point x="590" y="206" type="line"/>
		</contour>
	</outline>
</glyph>
<glyph name="astroke" format="2">
	<unicode hex="2C65"/>
	<advance width="544"/>
	<outline>
		<contour>
			<point x="142" y="-58" type="line"/>
			<point x="430" y="540" type="line"/>
			<point x="392" y="556" type="line"/>
			<point x="104" y="-42" type="line"/>
		</contour>
		<component base="a"/>
	</outline>
	<anchor name="aboveLC" x="316" y="514"/>
	<anchor name="belowLC" x="228" y="-22"/>
</glyph>
<glyph name="tstroke" format="2">
	<unicode hex="2C66"/>
	<advance width="346"/>
	<outline>
		<contour>
			<point x="-2" y="-40" type="line"/>
			<point x="424" y="522" type="line"/>
			<point x="392" y="546" type="line"/>
			<point x="-34" y="-16" type="line"/>
		</contour>
		<component base="t"/>
	</outline>
	<anchor name="aboveLC" x="236" y="650"/>
	<anchor name="belowLC" x="168" y="-22"/>
</glyph>
<glyph name="Eng.a" format="1">
	<advance width="631"/>
	<outline>
		<contour>
			<point x="332" y="-173" type="curve" smooth="yes"/>
			<point x="432" y="-173"/>
			<point x="478" y="-100"/>
			<point x="499" y="0" type="curve"/>
			<point x="630" y="654" type="line"/>
			<point x="526" y="654" type="line"/>
			<point x="467" y="356" type="line" smooth="yes"/>
			<point x="453" y="284"/>
			<point x="445" y="204"/>
			<point x="438" y="134" type="curve"/>
			<point x="434" y="134" type="line"/>
			<point x="426" y="180"/>
			<point x="408" y="250"/>
			<point x="400" y="274" type="curve" smooth="yes"/>
			<point x="274" y="654" type="line"/>
			<point x="162" y="654" type="line"/>
			<point x="32" y="0" type="line"/>
			<point x="135" y="0" type="line"/>
			<point x="194" y="300" type="line" smooth="yes"/>
			<point x="208" y="371"/>
			<point x="217" y="452"/>
			<point x="224" y="522" type="curve"/>
			<point x="228" y="522" type="line"/>
			<point x="238" y="466"/>
			<point x="256" y="402"/>
			<point x="264" y="378" type="curve" smooth="yes"/>
			<point x="388" y="0" type="line"/>
			<point x="396" y="0" type="line"/>
			<point x="383" y="-64"/>
			<point x="360" y="-87"/>
			<point x="325" y="-87" type="curve" smooth="yes"/>
			<point x="307" y="-87"/>
			<point x="292" y="-84"/>
			<point x="278" y="-77" type="curve"/>
			<point x="249" y="-153" type="line"/>
			<point x="274" y="-168"/>
			<point x="302" y="-173"/>
		</contour>
		<contour>
			<point name="aboveUC" x="418" y="676" type="move"/>
		</contour>
		<contour>
			<point name="belowLC" x="236" y="-168" type="move"/>
		</contour>
	</outline>
</glyph>
<glyph name="I.a" format="2">
	<advance width="345"/>
	<outline>
		<contour>
			<point x="-7" y="0" type="line"/>
			<point x="251" y="0" type="line"/>
			<point x="270" y="91" type="line"/>
			<point x="193" y="91" type="line"/>
			<point x="289" y="563" type="line"/>
			<point x="363" y="563" type="line"/>
			<point x="382" y="654" type="line"/>
			<point x="125" y="654" type="line"/>
			<point x="106" y="563" type="line"/>
			<point x="181" y="563" type="line"/>
			<point x="85" y="91" type="line"/>
			<point x="12" y="91" type="line"/>
		</contour>
	</outline>
	<anchor name="aboveUC" x="260" y="676"/>
	<anchor name="belowLC" x="120" y="-22"/>
	<anchor name="ogonekUC" x="120" y="0"/>
</glyph>
<glyph name="M.sups" format="1">
	<advance width="482"/>
	<outline>
		<contour>
			<point x="80" y="385" type="line"/>
			<point x="154" y="385" type="line"/>
			<point x="191" y="572" type="line" smooth="yes"/>
			<point x="200" y="618"/>
			<point x="204" y="678"/>
			<point x="208" y="728" type="curve"/>
			<point x="212" y="728" type="line"/>
			<point x="224" y="608" type="line"/>
			<point x="252" y="426" type="line"/>
			<point x="304" y="426" type="line"/>
			<point x="404" y="610" type="line"/>
			<point x="460" y="728" type="line"/>
			<point x="464" y="728" type="line"/>
			<point x="451" y="684"/>
			<point x="429" y="618"/>
			<point x="420" y="572" type="curve" smooth="yes"/>
			<point x="384" y="385" type="line"/>
			<point x="459" y="385" type="line"/>
			<point x="546" y="817" type="line"/>
			<point x="450" y="817" type="line"/>
			<point x="340" y="610" type="line"/>
			<point x="324" y="578"/>
			<point x="312" y="550"/>
			<point x="298" y="518" type="curve"/>
			<point x="294" y="518" type="line"/>
			<point x="294" y="550"/>
			<point x="292" y="578"/>
			<point x="288" y="610" type="curve"/>
			<point x="260" y="817" type="line"/>
			<point x="166" y="817" type="line"/>
		</contour>
	</outline>
</glyph>
<glyph name="N.sups" format="1">
	<advance width="422"/>
	<outline>
		<contour>
			<point x="80" y="385" type="line"/>
			<point x="155" y="385" type="line"/>
			<point x="190" y="565" type="line" smooth="yes"/>
			<point x="199" y="614"/>
			<point x="208" y="676"/>
			<point x="208" y="728" type="curve"/>
			<point x="212" y="728" type="line"/>
			<point x="222" y="682"/>
			<point x="230" y="648"/>
			<point x="240" y="616" type="curve" smooth="yes"/>
			<point x="314" y="385" type="line"/>
			<point x="399" y="385" type="line"/>
			<point x="485" y="817" type="line"/>
			<point x="410" y="817" type="line"/>
			<point x="375" y="637" type="line" smooth="yes"/>
			<point x="365" y="588"/>
			<point x="358" y="524"/>
			<point x="356" y="472" type="curve"/>
			<point x="352" y="472" type="line"/>
			<point x="344" y="518"/>
			<point x="336" y="552"/>
			<point x="325" y="586" type="curve" smooth="yes"/>
			<point x="250" y="817" type="line"/>
			<point x="166" y="817" type="line"/>
		</contour>
	</outline>
</glyph>
<glyph name="Tstroke" format="2">
	<advance width="521"/>
	<outline>
		<contour>
			<point x="8" y="-38" type="line"/>
			<point x="624" y="668" type="line"/>
			<point x="594" y="692" type="line"/>
			<point x="-22" y="-14" type="line"/>
		</contour>
		<component base="T"/>
	</outline>
	<anchor name="aboveUC" x="342" y="676"/>
	<anchor name="belowLC" x="208" y="-22"/>
</glyph>
<glyph name="W.sups" format="2">
	<advance width="517"/>
	<outline>
		<contour>
			<point x="120" y="384" type="line"/>
			<point x="228" y="384" type="line"/>
			<point x="314" y="604" type="line" smooth="yes"/>
			<point x="326" y="636"/>
			<point x="338" y="666"/>
			<point x="348" y="712" type="curve"/>
			<point x="352" y="712" type="line"/>
			<point x="348" y="664"/>
			<point x="346" y="636"/>
			<point x="346" y="604" type="curve" smooth="yes"/>
			<point x="348" y="384" type="line"/>
			<point x="456" y="384" type="line"/>
			<point x="620" y="816" type="line"/>
			<point x="540" y="816" type="line"/>
			<point x="462" y="604" type="line"/>
			<point x="446" y="556"/>
			<point x="430" y="509"/>
			<point x="416" y="458" type="curve"/>
			<point x="412" y="458" type="line"/>
			<point x="416" y="509"/>
			<point x="416" y="556"/>
			<point x="416" y="604" type="curve"/>
			<point x="414" y="816" type="line"/>
			<point x="332" y="816" type="line"/>
			<point x="242" y="604" type="line" smooth="yes"/>
			<point x="222" y="556"/>
			<point x="208" y="512"/>
			<point x="192" y="458" type="curve"/>
			<point x="188" y="458" type="line"/>
			<point x="194" y="512"/>
			<point x="198" y="556"/>
			<point x="200" y="604" type="curve"/>
			<point x="208" y="816" type="line"/>
			<point x="123" y="816" type="line"/>
		</contour>
	</outline>
</glyph>
<glyph name=".notdef" format="1">
	<advance width="647"/>
	<outline>
		<contour>
			<point x="32" y="0" type="line"/>
			<point x="515" y="0" type="line"/>
			<point x="645" y="660" type="line"/>
			<point x="162" y="660" type="line"/>
		</contour>
		<contour>
			<point x="351" y="398" type="line"/>
			<point x="326" y="492" type="line"/>
			<point x="297" y="587" type="line"/>
			<point x="483" y="587" type="line"/>
			<point x="418" y="492" type="line"/>
			<point x="355" y="398" type="line"/>
		</contour>
		<contour>
			<point x="187" y="73" type="line"/>
			<point x="263" y="181" type="line"/>
			<point x="327" y="280" type="line"/>
			<point x="331" y="280" type="line"/>
			<point x="356" y="181" type="line"/>
			<point x="388" y="73" type="line"/>
		</contour>
		<contour>
			<point x="137" y="128" type="line"/>
			<point x="222" y="552" type="line"/>
			<point x="285" y="340" type="line"/>
		</contour>
		<contour>
			<point x="461" y="128" type="line"/>
			<point x="398" y="340" type="line"/>
			<point x="548" y="552" type="line"/>
		</contour>
	</outline>
</glyph>
<glyph name="a.a" format="1">
	<advance width="503"/>
	<outline>
		<contour>
			<point x="150" y="-12" type="curve" smooth="yes"/>
			<point x="202" y="-12"/>
			<point x="260" y="18"/>
			<point x="298" y="54" type="curve"/>
			<point x="302" y="54" type="line"/>
			<point x="301" y="0" type="line"/>
			<point x="388" y="0" type="line"/>
			<point x="443" y="280" type="line"/>
			<point x="448" y="304"/>
			<point x="451" y="329"/>
			<point x="451" y="350" type="curve" smooth="yes"/>
			<point x="451" y="456"/>
			<point x="392" y="503"/>
			<point x="290" y="503" type="curve" smooth="yes"/>
			<point x="228" y="503"/>
			<point x="161" y="482"/>
			<point x="106" y="453" type="curve"/>
			<point x="140" y="378" type="line"/>
			<point x="186" y="403"/>
			<point x="227" y="418"/>
			<point x="268" y="418" type="curve" smooth="yes"/>
			<point x="318" y="418"/>
			<point x="345" y="398"/>
			<point x="345" y="339" type="curve" smooth="yes"/>
			<point x="345" y="329"/>
			<point x="345" y="322"/>
			<point x="342" y="308" type="curve"/>
			<point x="160" y="302"/>
			<point x="27" y="256"/>
			<point x="27" y="110" type="curve" smooth="yes"/>
			<point x="27" y="34"/>
			<point x="82" y="-12"/>
		</contour>
		<contour>
			<point x="198" y="72" type="curve" smooth="yes"/>
			<point x="160" y="72"/>
			<point x="132" y="92"/>
			<point x="132" y="132" type="curve" smooth="yes"/>
			<point x="132" y="194"/>
			<point x="200" y="230"/>
			<point x="328" y="234" type="curve"/>
			<point x="306" y="130" type="line"/>
			<point x="269" y="95"/>
			<point x="233" y="72"/>
		</contour>
		<contour>
			<point name="aboveLC" x="302" y="514" type="move"/>
		</contour>
		<contour>
			<point name="belowLC" x="210" y="-22" type="move"/>
		</contour>
		<contour>
			<point name="ogonekLC" x="312" y="0" type="move"/>
		</contour>
	</outline>
</glyph>
<glyph name="a.supa" format="1">
	<advance width="339"/>
	<outline>
		<contour>
			<point x="83" y="458" type="curve" smooth="yes"/>
			<point x="83" y="408"/>
			<point x="119" y="377"/>
			<point x="165" y="377" type="curve" smooth="yes"/>
			<point x="200" y="377"/>
			<point x="238" y="396"/>
			<point x="262" y="421" type="curve"/>
			<point x="266" y="421" type="line"/>
			<point x="265" y="385" type="line"/>
			<point x="327" y="385" type="line"/>
			<point x="363" y="569" type="line" smooth="yes"/>
			<point x="366" y="585"/>
			<point x="369" y="602"/>
			<point x="369" y="615" type="curve" smooth="yes"/>
			<point x="369" y="687"/>
			<point x="328" y="718"/>
			<point x="258" y="718" type="curve" smooth="yes"/>
			<point x="216" y="718"/>
			<point x="173" y="704"/>
			<point x="135" y="685" type="curve"/>
			<point x="159" y="632" type="line"/>
			<point x="191" y="647"/>
			<point x="215" y="657"/>
			<point x="241" y="657" type="curve" smooth="yes"/>
			<point x="276" y="657"/>
			<point x="292" y="641"/>
			<point x="292" y="607" type="curve" smooth="yes"/>
			<point x="292" y="602"/>
			<point x="292" y="599"/>
			<point x="291" y="592" type="curve"/>
			<point x="173" y="588"/>
			<point x="83" y="554"/>
		</contour>
		<contour>
			<point x="280" y="538" type="curve"/>
			<point x="267" y="471" type="line"/>
			<point x="244" y="450"/>
			<point x="221" y="436"/>
			<point x="197" y="436" type="curve" smooth="yes"/>
			<point x="174" y="436"/>
			<point x="158" y="448"/>
			<point x="158" y="472" type="curve" smooth="yes"/>
			<point x="158" y="512"/>
			<point x="202" y="536"/>
		</contour>
	</outline>
</glyph>
<glyph name="aogonek.a" format="1">
	<advance width="504"/>
	<outline>
		<contour>
			<point x="295" y="-217" type="curve" smooth="yes"/>
			<point x="336" y="-217"/>
			<point x="371" y="-203"/>
			<point x="400" y="-181" type="curve"/>
			<point x="376" y="-130" type="line"/>
			<point x="363" y="-139"/>
			<point x="353" y="-144"/>
			<point x="337" y="-144" type="curve" smooth="yes"/>
			<point x="315" y="-144"/>
			<point x="300" y="-131"/>
			<point x="300" y="-108" type="curve" smooth="yes"/>
			<point x="300" y="-64"/>
			<point x="336" y="-21"/>
			<point x="388" y="0" type="curve"/>
			<point x="444" y="280" type="line" smooth="yes"/>
			<point x="449" y="304"/>
			<point x="452" y="328"/>
			<point x="452" y="350" type="curve" smooth="yes"/>
			<point x="452" y="456"/>
			<point x="392" y="504"/>
			<point x="290" y="504" type="curve" smooth="yes"/>
			<point x="228" y="504"/>
			<point x="162" y="484"/>
			<point x="106" y="452" type="curve"/>
			<point x="140" y="378" type="line"/>
			<point x="186" y="404"/>
			<point x="227" y="418"/>
			<point x="268" y="418" type="curve" smooth="yes"/>
			<point x="316" y="418"/>
			<point x="344" y="396"/>
			<point x="344" y="340" type="curve" smooth="yes"/>
			<point x="344" y="330"/>
			<point x="342" y="316"/>
			<point x="340" y="308" type="curve"/>
			<point x="160" y="304"/>
			<point x="26" y="252"/>
			<point x="26" y="110" type="curve" smooth="yes"/>
			<point x="26" y="33"/>
			<point x="82" y="-12"/>
			<point x="150" y="-12" type="curve" smooth="yes"/>
			<point x="202" y="-12"/>
			<point x="260" y="18"/>
			<point x="296" y="54" type="curve"/>
			<point x="300" y="54" type="line"/>
			<point x="300" y="4" type="line"/>
			<point x="257" y="-24"/>
			<point x="209" y="-82"/>
			<point x="209" y="-139" type="curve" smooth="yes"/>
			<point x="209" y="-190"/>
			<point x="245" y="-217"/>
		</contour>
		<contour>
			<point x="200" y="74" type="curve" smooth="yes"/>
			<point x="162" y="74"/>
			<point x="134" y="93"/>
			<point x="134" y="132" type="curve" smooth="yes"/>
			<point x="134" y="195"/>
			<point x="200" y="234"/>
			<point x="327" y="237" type="curve"/>
			<point x="304" y="126" type="line"/>
			<point x="266" y="93"/>
			<point x="232" y="74"/>
		</contour>
		<contour>
			<point name="aboveLC" x="302" y="514" type="move"/>
		</contour>
	</outline>
</glyph>
<glyph name="aogonek.e" format="1">
	<advance width="504"/>
	<outline>
		<contour>
			<point x="156" y="-217" type="curve" smooth="yes"/>
			<point x="197" y="-217"/>
			<point x="231" y="-203"/>
			<point x="260" y="-181" type="curve"/>
			<point x="237" y="-130" type="line"/>
			<point x="224" y="-139"/>
			<point x="213" y="-144"/>
			<point x="197" y="-144" type="curve" smooth="yes"/>
			<point x="176" y="-144"/>
			<point x="161" y="-129"/>
			<point x="161" y="-104" type="curve" smooth="yes"/>
			<point x="161" y="-73"/>
			<point x="184" y="-36"/>
			<point x="218" y="-9" type="curve" smooth="yes"/>
			<point x="245" y="13"/>
			<point x="268" y="32"/>
			<point x="296" y="54" type="curve"/>
			<point x="300" y="54" type="line"/>
			<point x="300" y="0" type="line"/>
			<point x="388" y="0" type="line"/>
			<point x="443" y="280" type="line" smooth="yes"/>
			<point x="449" y="304"/>
			<point x="452" y="328"/>
			<point x="451" y="350" type="curve" smooth="yes"/>
			<point x="452" y="456"/>
			<point x="392" y="504"/>
			<point x="289" y="504" type="curve" smooth="yes"/>
			<point x="228" y="504"/>
			<point x="162" y="484"/>
			<point x="105" y="452" type="curve"/>
			<point x="139" y="378" type="line"/>
			<point x="186" y="404"/>
			<point x="227" y="418"/>
			<point x="267" y="418" type="curve" smooth="yes"/>
			<point x="316" y="418"/>
			<point x="344" y="396"/>
			<point x="343" y="340" type="curve" smooth="yes"/>
			<point x="344" y="330"/>
			<point x="342" y="316"/>
			<point x="339" y="308" type="curve"/>
			<point x="160" y="304"/>
			<point x="26" y="252"/>
			<point x="25" y="110" type="curve" smooth="yes"/>
			<point x="26" y="33"/>
			<point x="82" y="-12"/>
			<point x="150" y="-12" type="curve" smooth="yes"/>
			<point x="164" y="-12"/>
			<point x="177" y="-10"/>
			<point x="194" y="-6" type="curve"/>
			<point x="168" y="2" type="line"/>
			<point x="119" y="-29"/>
			<point x="70" y="-84"/>
			<point x="70" y="-138" type="curve" smooth="yes"/>
			<point x="70" y="-191"/>
			<point x="106" y="-217"/>
		</contour>
		<contour>
			<point x="199" y="74" type="curve" smooth="yes"/>
			<point x="162" y="74"/>
			<point x="134" y="93"/>
			<point x="133" y="132" type="curve" smooth="yes"/>
			<point x="134" y="195"/>
			<point x="200" y="234"/>
			<point x="326" y="237" type="curve"/>
			<point x="303" y="126" type="line"/>
			<point x="266" y="93"/>
			<point x="232" y="74"/>
		</contour>
		<contour>
			<point name="aboveLC" x="302" y="514" type="move"/>
		</contour>
	</outline>
</glyph>
<glyph name="astroke.a" format="2">
	<advance width="503"/>
	<outline>
		<contour>
			<point x="150" y="-36" type="line"/>
			<point x="418" y="520" type="line"/>
			<point x="382" y="534" type="line"/>
			<point x="114" y="-22" type="line"/>
		</contour>
		<component base="a.a"/>
	</outline>
	<anchor name="aboveLC" x="302" y="514"/>
	<anchor name="belowLC" x="212" y="-22"/>
</glyph>
<glyph name="at.cap" format="1">
	<advance width="818"/>
	<outline>
		<contour>
			<point x="367" y="-26" type="curve" smooth="yes"/>
			<point x="417" y="-26"/>
			<point x="475" y="-16"/>
			<point x="525" y="13" type="curve"/>
			<point x="510" y="70" type="line"/>
			<point x="475" y="49"/>
			<point x="423" y="38"/>
			<point x="382" y="38" type="curve" smooth="yes"/>
			<point x="255" y="38"/>
			<point x="166" y="120"/>
			<point x="166" y="268" type="curve" smooth="yes"/>
			<point x="166" y="473"/>
			<point x="335" y="630"/>
			<point x="494" y="630" type="curve" smooth="yes"/>
			<point x="650" y="630"/>
			<point x="712" y="537"/>
			<point x="712" y="422" type="curve" smooth="yes"/>
			<point x="712" y="288"/>
			<point x="654" y="213"/>
			<point x="605" y="213" type="curve" smooth="yes"/>
			<point x="561" y="213"/>
			<point x="549" y="248"/>
			<point x="563" y="307" type="curve" smooth="yes"/>
			<point x="609" y="498" type="line"/>
			<point x="542" y="498" type="line"/>
			<point x="527" y="456" type="line"/>
			<point x="525" y="456" type="line"/>
			<point x="510" y="490"/>
			<point x="488" y="505"/>
			<point x="459" y="505" type="curve" smooth="yes"/>
			<point x="355" y="505"/>
			<point x="274" y="395"/>
			<point x="274" y="288" type="curve" smooth="yes"/>
			<point x="274" y="203"/>
			<point x="322" y="153"/>
			<point x="382" y="153" type="curve" smooth="yes"/>
			<point x="421" y="153"/>
			<point x="464" y="180"/>
			<point x="491" y="218" type="curve"/>
			<point x="494" y="218" type="line"/>
			<point x="503" y="170"/>
			<point x="538" y="144"/>
			<point x="583" y="144" type="curve" smooth="yes"/>
			<point x="690" y="144"/>
			<point x="782" y="244"/>
			<point x="782" y="428" type="curve" smooth="yes"/>
			<point x="782" y="577"/>
			<point x="689" y="693"/>
			<point x="501" y="693" type="curve" smooth="yes"/>
			<point x="294" y="693"/>
			<point x="92" y="513"/>
			<point x="92" y="253" type="curve" smooth="yes"/>
			<point x="92" y="79"/>
			<point x="209" y="-26"/>
		</contour>
		<contour>
			<point x="405" y="222" type="curve" smooth="yes"/>
			<point x="376" y="222"/>
			<point x="355" y="247"/>
			<point x="355" y="296" type="curve" smooth="yes"/>
			<point x="355" y="356"/>
			<point x="396" y="435"/>
			<point x="458" y="435" type="curve" smooth="yes"/>
			<point x="477" y="435"/>
			<point x="492" y="426"/>
			<point x="505" y="398" type="curve"/>
			<point x="478" y="277" type="line"/>
			<point x="452" y="238"/>
			<point x="429" y="222"/>
		</contour>
	</outline>
</glyph>
<glyph name="aturned.b" format="1">
	<advance width="503"/>
	<outline>
		<contour>
			<point x="224" y="-12" type="curve" smooth="yes"/>
			<point x="289" y="-12"/>
			<point x="356" y="13"/>
			<point x="419" y="49" type="curve"/>
			<point x="388" y="118" type="line"/>
			<point x="335" y="89"/>
			<point x="292" y="73"/>
			<point x="247" y="73" type="curve" smooth="yes"/>
			<point x="192" y="73"/>
			<point x="167" y="97"/>
			<point x="167" y="150" type="curve"/>
			<point x="167" y="160"/>
			<point x="168" y="168"/>
			<point x="171" y="180" type="curve"/>
			<point x="384" y="200"/>
			<point x="485" y="278"/>
			<point x="485" y="399" type="curve" smooth="yes"/>
			<point x="485" y="463"/>
			<point x="443" y="503"/>
			<point x="378" y="503" type="curve" smooth="yes"/>
			<point x="317" y="503"/>
			<point x="257" y="468"/>
			<point x="212" y="428" type="curve"/>
			<point x="209" y="428" type="line"/>
			<point x="210" y="434"/>
			<point x="210" y="436"/>
			<point x="210" y="438" type="curve" smooth="yes"/>
			<point x="210" y="478"/>
			<point x="184" y="503"/>
			<point x="137" y="503" type="curve" smooth="yes"/>
			<point x="114" y="503"/>
			<point x="95" y="499"/>
			<point x="76" y="494" type="curve"/>
			<point x="74" y="413" type="line"/>
			<point x="83" y="416"/>
			<point x="87" y="416"/>
			<point x="90" y="416" type="curve" smooth="yes"/>
			<point x="99" y="416"/>
			<point x="104" y="410"/>
			<point x="104" y="400" type="curve" smooth="yes"/>
			<point x="104" y="396"/>
			<point x="104" y="391"/>
			<point x="102" y="382" type="curve" smooth="yes"/>
			<point x="68" y="208" type="line" smooth="yes"/>
			<point x="63" y="184"/>
			<point x="61" y="163"/>
			<point x="61" y="143" type="curve" smooth="yes"/>
			<point x="61" y="36"/>
			<point x="121" y="-12"/>
		</contour>
		<contour>
			<point x="183" y="254" type="curve"/>
			<point x="204" y="359" type="line"/>
			<point x="245" y="396"/>
			<point x="286" y="420"/>
			<point x="325" y="420" type="curve" smooth="yes"/>
			<point x="356" y="420"/>
			<point x="380" y="401"/>
			<point x="380" y="363" type="curve" smooth="yes"/>
			<point x="380" y="302"/>
			<point x="311" y="268"/>
		</contour>
		<contour>
			<point name="aboveLC" x="316" y="513" type="move"/>
		</contour>
		<contour>
			<point name="belowLC" x="226" y="-22" type="move"/>
		</contour>
		<contour>
			<point name="ogonekLC" x="274" y="0" type="move"/>
		</contour>
	</outline>
</glyph>
<glyph name="beta.a" format="2">
	<advance width="548"/>
	<outline>
		<contour>
			<point x="236" y="-12" type="curve" smooth="yes"/>
			<point x="374" y="-12"/>
			<point x="502" y="84"/>
			<point x="502" y="230" type="curve" smooth="yes"/>
			<point x="502" y="298"/>
			<point x="458" y="360"/>
			<point x="376" y="372" type="curve"/>
			<point x="376" y="376" type="line"/>
			<point x="462" y="412"/>
			<point x="520" y="478"/>
			<point x="520" y="568" type="curve" smooth="yes"/>
			<point x="520" y="668"/>
			<point x="452" y="718"/>
			<point x="352" y="718" type="curve" smooth="yes"/>
			<point x="236" y="718"/>
			<point x="152" y="630"/>
			<point x="116" y="474" type="curve" smooth="yes"/>
			<point x="66" y="260" type="line" smooth="yes"/>
			<point x="58" y="226"/>
			<point x="54" y="198"/>
			<point x="54" y="168" type="curve" smooth="yes"/>
			<point x="54" y="42"/>
			<point x="136" y="-12"/>
		</contour>
		<contour>
			<point x="250" y="78" type="curve" smooth="yes"/>
			<point x="198" y="78"/>
			<point x="156" y="110"/>
			<point x="156" y="184" type="curve" smooth="yes"/>
			<point x="156" y="226"/>
			<point x="180" y="319"/>
			<point x="211" y="449" type="curve" smooth="yes"/>
			<point x="237" y="562"/>
			<point x="282" y="628"/>
			<point x="344" y="628" type="curve" smooth="yes"/>
			<point x="381" y="628"/>
			<point x="412" y="603"/>
			<point x="412" y="552" type="curve" smooth="yes"/>
			<point x="412" y="466"/>
			<point x="340" y="402"/>
			<point x="146" y="376" type="curve"/>
			<point x="142" y="286" type="line"/>
			<point x="226" y="310"/>
			<point x="270" y="318"/>
			<point x="294" y="318" type="curve" smooth="yes"/>
			<point x="366" y="318"/>
			<point x="394" y="276"/>
			<point x="394" y="226" type="curve" smooth="yes"/>
			<point x="394" y="142"/>
			<point x="324" y="78"/>
		</contour>
	</outline>
</glyph>
<glyph name="eogonek.d" format="1">
	<advance width="488"/>
	<outline>
		<contour>
			<point x="191" y="-217" type="curve" smooth="yes"/>
			<point x="232" y="-217"/>
			<point x="267" y="-203"/>
			<point x="296" y="-181" type="curve"/>
			<point x="273" y="-130" type="line"/>
			<point x="259" y="-139"/>
			<point x="249" y="-144"/>
			<point x="233" y="-144" type="curve" smooth="yes"/>
			<point x="212" y="-144"/>
			<point x="196" y="-131"/>
			<point x="196" y="-108" type="curve" smooth="yes"/>
			<point x="196" y="-68"/>
			<point x="224" y="-30"/>
			<point x="300" y="-6" type="curve" smooth="yes"/>
			<point x="340" y="6"/>
			<point x="363" y="16"/>
			<point x="398" y="42" type="curve"/>
			<point x="360" y="108" type="line"/>
			<point x="334" y="88"/>
			<point x="296" y="74"/>
			<point x="260" y="74" type="curve" smooth="yes"/>
			<point x="188" y="74"/>
			<point x="130" y="116"/>
			<point x="140" y="214" type="curve"/>
			<point x="437" y="214" type="line"/>
			<point x="445" y="230"/>
			<point x="458" y="278"/>
			<point x="458" y="322" type="curve" smooth="yes"/>
			<point x="458" y="424"/>
			<point x="416" y="504"/>
			<point x="301" y="504" type="curve" smooth="yes"/>
			<point x="172" y="504"/>
			<point x="33" y="380"/>
			<point x="33" y="196" type="curve" smooth="yes"/>
			<point x="33" y="65"/>
			<point x="114" y="-12"/>
			<point x="238" y="-12" type="curve"/>
			<point x="213" y="1" type="line"/>
			<point x="155" y="-27"/>
			<point x="105" y="-83"/>
			<point x="105" y="-139" type="curve" smooth="yes"/>
			<point x="105" y="-190"/>
			<point x="142" y="-217"/>
		</contour>
		<contour>
			<point x="150" y="294" type="line"/>
			<point x="172" y="372"/>
			<point x="230" y="418"/>
			<point x="288" y="418" type="curve" smooth="yes"/>
			<point x="347" y="418"/>
			<point x="367" y="376"/>
			<point x="367" y="329" type="curve" smooth="yes"/>
			<point x="367" y="316"/>
			<point x="365" y="305"/>
			<point x="362" y="294" type="curve"/>
		</contour>
		<contour>
			<point name="aboveLC" x="312" y="514" type="move"/>
		</contour>
	</outline>
</glyph>
<glyph name="eogonek.sups" format="1">
	<advance width="328"/>
	<outline>
		<contour>
			<point x="241" y="226" type="curve" smooth="yes"/>
			<point x="268" y="226"/>
			<point x="289" y="239"/>
			<point x="307" y="252" type="curve"/>
			<point x="291" y="288" type="line"/>
			<point x="280" y="280"/>
			<point x="272" y="276"/>
			<point x="260" y="276" type="curve" smooth="yes"/>
			<point x="244" y="276"/>
			<point x="231" y="285"/>
			<point x="231" y="305" type="curve" smooth="yes"/>
			<point x="231" y="335"/>
			<point x="264" y="372"/>
			<point x="326" y="409" type="curve"/>
			<point x="303" y="456" type="line"/>
			<point x="281" y="443"/>
			<point x="258" y="436"/>
			<point x="232" y="436" type="curve" smooth="yes"/>
			<point x="191" y="436"/>
			<point x="156" y="459"/>
			<point x="156" y="518" type="curve" smooth="yes"/>
			<point x="156" y="609"/>
			<point x="208" y="657"/>
			<point x="254" y="657" type="curve" smooth="yes"/>
			<point x="295" y="657"/>
			<point x="312" y="622"/>
			<point x="301" y="568" type="curve"/>
			<point x="309" y="580" type="line"/>
			<point x="142" y="580" type="line"/>
			<point x="142" y="524" type="line"/>
			<point x="356" y="524" type="line"/>
			<point x="361" y="538"/>
			<point x="370" y="567"/>
			<point x="370" y="597" type="curve" smooth="yes"/>
			<point x="370" y="666"/>
			<point x="338" y="718"/>
			<point x="264" y="718" type="curve" smooth="yes"/>
			<point x="177" y="718"/>
			<point x="82" y="637"/>
			<point x="82" y="514" type="curve" smooth="yes"/>
			<point x="82" y="425"/>
			<point x="138" y="376"/>
			<point x="215" y="376" type="curve" smooth="yes"/>
			<point x="237" y="376"/>
			<point x="252" y="379"/>
			<point x="273" y="388" type="curve"/>
			<point x="246" y="397" type="line"/>
			<point x="197" y="358"/>
			<point x="174" y="325"/>
			<point x="174" y="285" type="curve" smooth="yes"/>
			<point x="174" y="244"/>
			<point x="202" y="226"/>
		</contour>
	</outline>
</glyph>
<glyph name="eopen.sups" format="2">
	<advance width="308"/>
	<outline>
		<contour>
			<point x="200" y="377" type="curve" smooth="yes"/>
			<point x="250" y="377"/>
			<point x="285" y="388"/>
			<point x="326" y="414" type="curve"/>
			<point x="300" y="459" type="line"/>
			<point x="269" y="442"/>
			<point x="246" y="436"/>
			<point x="219" y="436" type="curve" smooth="yes"/>
			<point x="182" y="436"/>
			<point x="156" y="449"/>
			<point x="156" y="474" type="curve" smooth="yes"/>
			<point x="156" y="505"/>
			<point x="182" y="526"/>
			<point x="236" y="526" type="curve" smooth="yes"/>
			<point x="280" y="526" type="line"/>
			<point x="294" y="582" type="line"/>
			<point x="254" y="582" type="line" smooth="yes"/>
			<point x="218" y="582"/>
			<point x="203" y="595"/>
			<point x="203" y="616" type="curve" smooth="yes"/>
			<point x="203" y="642"/>
			<point x="228" y="660"/>
			<point x="266" y="660" type="curve" smooth="yes"/>
			<point x="291" y="660"/>
			<point x="312" y="654"/>
			<point x="332" y="641" type="curve"/>
			<point x="362" y="686" type="line"/>
			<point x="334" y="706"/>
			<point x="298" y="718"/>
			<point x="258" y="718" type="curve" smooth="yes"/>
			<point x="181" y="718"/>
			<point x="126" y="680"/>
			<point x="126" y="622" type="curve" smooth="yes"/>
			<point x="126" y="592"/>
			<point x="146" y="569"/>
			<point x="173" y="560" type="curve"/>
			<point x="173" y="556" type="line"/>
			<point x="127" y="547"/>
			<point x="80" y="517"/>
			<point x="80" y="461" type="curve" smooth="yes"/>
			<point x="80" y="404"/>
			<point x="134" y="377"/>
		</contour>
	</outline>
</glyph>
<glyph name="gsmall" format="2">
	<advance width="496"/>
	<outline>
		<contour>
			<point x="232" y="-12" type="curve" smooth="yes"/>
			<point x="302" y="-12"/>
			<point x="368" y="14"/>
			<point x="410" y="48" type="curve"/>
			<point x="456" y="282" type="line"/>
			<point x="268" y="282" type="line"/>
			<point x="252" y="202" type="line"/>
			<point x="346" y="202" type="line"/>
			<point x="324" y="94" type="line"/>
			<point x="306" y="82"/>
			<point x="280" y="72"/>
			<point x="250" y="72" type="curve" smooth="yes"/>
			<point x="186" y="72"/>
			<point x="146" y="118"/>
			<point x="146" y="196" type="curve" smooth="yes"/>
			<point x="146" y="320"/>
			<point x="226" y="418"/>
			<point x="324" y="418" type="curve" smooth="yes"/>
			<point x="368" y="418"/>
			<point x="396" y="404"/>
			<point x="418" y="378" type="curve"/>
			<point x="480" y="442" type="line"/>
			<point x="448" y="476"/>
			<point x="406" y="504"/>
			<point x="330" y="504" type="curve" smooth="yes"/>
			<point x="170" y="504"/>
			<point x="34" y="368"/>
			<point x="34" y="190" type="curve" smooth="yes"/>
			<point x="34" y="54"/>
			<point x="120" y="-12"/>
		</contour>
	</outline>
	<anchor name="aboveLC" x="326" y="514"/>
	<anchor name="belowLC" x="226" y="-22"/>
</glyph>
<glyph name="istroke.x" format="1">
	<advance width="296"/>
	<outline>
		<contour>
			<point x="-6" y="214" type="line"/>
			<point x="277" y="214" type="line"/>
			<point x="292" y="294" type="line"/>
			<point x="100" y="294" type="line"/>
			<point x="8" y="288" type="line"/>
		</contour>
		<component base="dotlessi" xOffset="17"/>
		<contour>
			<point name="aboveLC" x="198" y="514" type="move"/>
		</contour>
		<contour>
			<point name="belowLC" x="92" y="-22" type="move"/>
		</contour>
		<contour>
			<point name="ogonekLC" x="92" y="0" type="move"/>
		</contour>
	</outline>
</glyph>
<glyph name="l.a" format="1">
	<advance width="252"/>
	<outline>
		<contour>
			<point x="22" y="0" type="line"/>
			<point x="130" y="0" type="line"/>
			<point x="271" y="706" type="line"/>
			<point x="164" y="706" type="line"/>
		</contour>
		<contour>
			<point name="aboveUC" x="216" y="724" type="move"/>
		</contour>
		<contour>
			<point name="belowLC" x="72" y="-22" type="move"/>
		</contour>
	</outline>
</glyph>
<glyph name="lambda.latin" format="2">
	<advance width="476"/>
	<outline>
		<contour>
			<point x="-29" y="0" type="line"/>
			<point x="81" y="0" type="line"/>
			<point x="202" y="245" type="line" smooth="yes"/>
			<point x="224" y="290"/>
			<point x="252" y="347"/>
			<point x="271" y="393" type="curve"/>
			<point x="275" y="393" type="line"/>
			<point x="279" y="347"/>
			<point x="282" y="290"/>
			<point x="287" y="245" type="curve" smooth="yes"/>
			<point x="316" y="0" type="line"/>
			<point x="422" y="0" type="line"/>
			<point x="341" y="542" type="line"/>
			<point x="325" y="660"/>
			<point x="280" y="718"/>
			<point x="178" y="718" type="curve" smooth="yes"/>
			<point x="159" y="718"/>
			<point x="130" y="710"/>
			<point x="110" y="700" type="curve"/>
			<point x="130" y="620" type="line"/>
			<point x="140" y="626"/>
			<point x="155" y="630"/>
			<point x="168" y="630" type="curve" smooth="yes"/>
			<point x="216" y="630"/>
			<point x="227" y="601"/>
			<point x="235" y="540" type="curve" smooth="yes"/>
			<point x="242" y="487" type="line"/>
		</contour>
	</outline>
	<anchor name="aboveUC" x="279" y="724"/>
	<anchor name="belowLC" x="211" y="-22"/>
</glyph>
<glyph name="lbardbl" format="2">
	<advance width="312"/>
	<outline>
		<contour>
			<point x="46" y="414" type="line"/>
			<point x="328" y="414" type="line"/>
			<point x="342" y="478" type="line"/>
			<point x="148" y="478" type="line"/>
			<point x="58" y="472" type="line"/>
		</contour>
		<contour>
			<point x="20" y="286" type="line"/>
			<point x="302" y="286" type="line"/>
			<point x="316" y="350" type="line"/>
			<point x="122" y="350" type="line"/>
			<point x="32" y="344" type="line"/>
		</contour>
		<component base="l" xOffset="28"/>
	</outline>
	<anchor name="aboveUC" x="250" y="726"/>
	<anchor name="belowLC" x="132" y="-22"/>
</glyph>
<glyph name="lslash.a" format="2">
	<advance width="311"/>
	<outline>
		<contour>
			<point x="34" y="288" type="line"/>
			<point x="126" y="328" type="line"/>
			<point x="228" y="372" type="line"/>
			<point x="374" y="432" type="line"/>
			<point x="348" y="508" type="line"/>
			<point x="246" y="466" type="line"/>
			<point x="144" y="422" type="line"/>
			<point x="6" y="364" type="line"/>
		</contour>
		<component base="l.a" xOffset="29"/>
	</outline>
</glyph>
<glyph name="yi.a" format="1">
	<advance width="251"/>
	<outline>
		<contour>
			<point x="126" y="580" type="curve" smooth="yes"/>
			<point x="161" y="580"/>
			<point x="190" y="611"/>
			<point x="190" y="646" type="curve" smooth="yes"/>
			<point x="190" y="678"/>
			<point x="170" y="695"/>
			<point x="144" y="695" type="curve" smooth="yes"/>
			<point x="110" y="695"/>
			<point x="81" y="664"/>
			<point x="81" y="628" type="curve" smooth="yes"/>
			<point x="81" y="598"/>
			<point x="100" y="580"/>
		</contour>
		<contour>
			<point x="261" y="580" type="curve" smooth="yes"/>
			<point x="296" y="580"/>
			<point x="325" y="611"/>
			<point x="325" y="646" type="curve" smooth="yes"/>
			<point x="325" y="678"/>
			<point x="305" y="695"/>
			<point x="280" y="695" type="curve" smooth="yes"/>
			<point x="245" y="695"/>
			<point x="216" y="664"/>
			<point x="216" y="628" type="curve" smooth="yes"/>
			<point x="216" y="598"/>
			<point x="236" y="580"/>
		</contour>
		<component base="dotlessi"/>
	</outline>
</glyph>
<glyph name="zero.0ps" format="1">
	<advance width="523"/>
	<outline>
		<contour>
			<point x="324" y="128" type="line"/>
			<point x="408" y="128" type="line"/>
			<point x="220" y="510" type="line"/>
			<point x="134" y="510" type="line"/>
		</contour>
		<component base="zero.pnum"/>
	</outline>
</glyph>
<glyph name="zero.0s" format="1">
	<advance width="494"/>
	<outline>
		<contour>
			<point x="310" y="128" type="line"/>
			<point x="394" y="128" type="line"/>
			<point x="214" y="510" type="line"/>
			<point x="130" y="510" type="line"/>
		</contour>
		<component base="zero"/>
	</outline>
</glyph>
<glyph name="zero.pnum" format="2">
	<advance width="525"/>
	<outline>
		<contour>
			<point x="220" y="-12" type="curve" smooth="yes"/>
			<point x="363" y="-12"/>
			<point x="501" y="161"/>
			<point x="501" y="423" type="curve" smooth="yes"/>
			<point x="501" y="561"/>
			<point x="431" y="648"/>
			<point x="322" y="648" type="curve" smooth="yes"/>
			<point x="179" y="648"/>
			<point x="40" y="473"/>
			<point x="40" y="211" type="curve" smooth="yes"/>
			<point x="40" y="74"/>
			<point x="110" y="-12"/>
		</contour>
		<contour>
			<point x="226" y="74" type="curve" smooth="yes"/>
			<point x="170" y="74"/>
			<point x="142" y="120"/>
			<point x="142" y="202" type="curve" smooth="yes"/>
			<point x="142" y="386"/>
			<point x="225" y="563"/>
			<point x="315" y="563" type="curve" smooth="yes"/>
			<point x="371" y="563"/>
			<point x="399" y="515"/>
			<point x="399" y="432" type="curve" smooth="yes"/>
			<point x="399" y="248"/>
			<point x="316" y="74"/>
		</contour>
	</outline>
</glyph>
